<svg width="36" height="36" viewBox="0 0 36 36" fill="none" xmlns="http://www.w3.org/2000/svg">
<mask id="path-1-inside-1_419_1018" fill="white">
<path d="M16.6485 1.38647C16.5889 0.653472 17.1352 0.00574915 17.8706 0.000455447C20.9705 -0.0218594 24.032 0.757069 26.7539 2.272C29.8646 4.00336 32.392 6.61826 34.0166 9.78604C35.6411 12.9538 36.2899 16.5322 35.8807 20.0687C35.4716 23.6051 34.0229 26.9409 31.718 29.654C29.413 32.3672 26.3553 34.3359 22.9315 35.3113C19.5076 36.2866 15.8714 36.2248 12.4827 35.1336C9.09402 34.0424 6.105 31.9708 3.89364 29.1808C1.9587 26.7396 0.695203 23.8443 0.216192 20.7815C0.102557 20.0549 0.653472 19.4111 1.38647 19.3515V19.3515C2.11946 19.2918 2.75612 19.8393 2.87908 20.5644C3.30943 23.1021 4.37309 25.4983 5.98074 27.5266C7.86491 29.9038 10.4117 31.6688 13.299 32.5986C16.1864 33.5284 19.2846 33.5811 22.2018 32.75C25.1191 31.919 27.7244 30.2415 29.6884 27.9298C31.6523 25.618 32.8866 22.7758 33.2352 19.7626C33.5838 16.7494 33.0311 13.7004 31.6469 11.0013C30.2627 8.30223 28.1092 6.07422 25.4587 4.59903C23.1972 3.34034 20.6606 2.67796 18.0868 2.66341C17.3514 2.65925 16.7082 2.11946 16.6485 1.38647V1.38647Z"/>
</mask>
<path d="M16.6485 1.38647C16.5889 0.653472 17.1352 0.00574915 17.8706 0.000455447C20.9705 -0.0218594 24.032 0.757069 26.7539 2.272C29.8646 4.00336 32.392 6.61826 34.0166 9.78604C35.6411 12.9538 36.2899 16.5322 35.8807 20.0687C35.4716 23.6051 34.0229 26.9409 31.718 29.654C29.413 32.3672 26.3553 34.3359 22.9315 35.3113C19.5076 36.2866 15.8714 36.2248 12.4827 35.1336C9.09402 34.0424 6.105 31.9708 3.89364 29.1808C1.9587 26.7396 0.695203 23.8443 0.216192 20.7815C0.102557 20.0549 0.653472 19.4111 1.38647 19.3515V19.3515C2.11946 19.2918 2.75612 19.8393 2.87908 20.5644C3.30943 23.1021 4.37309 25.4983 5.98074 27.5266C7.86491 29.9038 10.4117 31.6688 13.299 32.5986C16.1864 33.5284 19.2846 33.5811 22.2018 32.75C25.1191 31.919 27.7244 30.2415 29.6884 27.9298C31.6523 25.618 32.8866 22.7758 33.2352 19.7626C33.5838 16.7494 33.0311 13.7004 31.6469 11.0013C30.2627 8.30223 28.1092 6.07422 25.4587 4.59903C23.1972 3.34034 20.6606 2.67796 18.0868 2.66341C17.3514 2.65925 16.7082 2.11946 16.6485 1.38647V1.38647Z" stroke="#3B3B3B" stroke-width="4" mask="url(#path-1-inside-1_419_1018)"/>
<circle cx="12" cy="2" r="2" fill="#1D71B8"/>
<circle cx="6" cy="7" r="2" fill="#1D71B8"/>
<circle cx="2" cy="13" r="2" fill="#1D71B8"/>
<path d="M18 10V19.5L11 22.5" stroke="#3B3B3B" stroke-width="3" stroke-linecap="round"/>
</svg>
