<svg width="391" height="301" viewBox="0 0 391 301" fill="none" xmlns="http://www.w3.org/2000/svg">
<g filter="url(#filter0_f_442_1052)">
<ellipse cx="195.5" cy="250" rx="171.5" ry="27" fill="url(#paint0_radial_442_1052)"/>
</g>
<path d="M317.032 237.897C316.6 238.5 316.165 239.098 315.733 239.693C314.493 240.547 313.021 241.003 311.515 241H79.4849C78.0458 241.001 76.6373 240.585 75.4298 239.803C75.0291 239.274 74.6329 238.742 74.2322 238.209L74.6329 237.989L192.097 172.898C193.139 172.322 194.31 172.019 195.501 172.017C196.692 172.016 197.864 172.316 198.908 172.889L316.636 237.677L317.032 237.897Z" fill="#045CFB"/>
<path d="M311.515 101.028L209.713 42.2534C205.431 39.7813 200.574 38.4787 195.63 38.4762C190.685 38.4738 185.827 39.7716 181.543 42.2395L79.4848 101.028C77.5006 101.031 75.5984 101.82 74.1954 103.223C72.7923 104.626 72.0028 106.527 72 108.511V233.517C72.0023 235.501 72.7916 237.403 74.1948 238.806C75.598 240.209 77.5005 240.998 79.4848 241H311.515C313.499 240.997 315.401 240.207 316.804 238.805C318.207 237.402 318.997 235.501 319 233.517V108.511C318.997 106.527 318.208 104.626 316.805 103.223C315.402 101.82 313.499 101.031 311.515 101.028ZM318.119 233.517C318.115 235.267 317.418 236.944 316.18 238.181C314.943 239.418 313.265 240.115 311.515 240.12H79.4848C77.7343 240.117 76.0563 239.42 74.8184 238.182C73.5805 236.945 72.8837 235.267 72.8806 233.517V108.511C72.8827 106.761 73.5792 105.083 74.8173 103.845C76.0554 102.607 77.7339 101.911 79.4848 101.909L181.543 43.1198C185.827 40.652 190.685 39.3541 195.63 39.3566C200.574 39.359 205.431 40.6616 209.713 43.1337L311.515 101.909C313.266 101.911 314.945 102.607 316.183 103.845C317.421 105.083 318.117 106.761 318.119 108.511V233.517Z" fill="#3F3D56"/>
<path d="M195.632 171.754C194.865 171.756 194.104 171.628 193.38 171.376L193.246 171.329L193.219 171.033C193.136 171.074 193.053 171.113 192.969 171.15L192.88 171.189L192.792 171.149C192.606 171.068 192.422 170.976 192.244 170.876L111.185 125.34V32.363C111.188 30.2041 112.047 28.1343 113.574 26.6077C115.101 25.0811 117.171 24.2224 119.331 24.22H271.669C273.829 24.2224 275.899 25.0811 277.426 26.6077C278.953 28.1343 279.812 30.2041 279.815 32.363V125.458L279.702 125.522L199.02 170.876C197.984 171.453 196.818 171.755 195.632 171.754V171.754Z" fill="white"/>
<path d="M195.632 171.974C194.84 171.977 194.054 171.845 193.306 171.584L193.04 171.49L193.028 171.364L192.88 171.429L192.703 171.351C192.511 171.267 192.32 171.171 192.136 171.068L110.965 125.469V32.3631C110.968 30.1458 111.85 28.0201 113.418 26.4523C114.986 24.8844 117.113 24.0025 119.331 24H271.669C273.887 24.0025 276.013 24.8844 277.582 26.4523C279.15 28.0201 280.032 30.1458 280.035 32.3631V125.587L199.128 171.068C198.059 171.664 196.856 171.976 195.632 171.974V171.974ZM193.865 170.84C195.484 171.304 197.22 171.11 198.697 170.3L279.154 125.072V32.3631C279.152 30.3792 278.363 28.4772 276.959 27.0744C275.556 25.6716 273.654 24.8826 271.669 24.8803H119.331C117.346 24.8825 115.444 25.6716 114.041 27.0744C112.637 28.4772 111.848 30.3792 111.846 32.3631V124.953L117.125 127.917L192.568 170.3C192.67 170.358 192.775 170.413 192.88 170.464C192.986 170.413 193.09 170.358 193.193 170.301L193.786 169.967L193.865 170.84Z" fill="#3F3D56"/>
<path d="M317.049 104.277L285.098 122.235L279.595 125.33L198.912 170.684C197.91 171.243 196.78 171.536 195.632 171.534C194.89 171.536 194.153 171.412 193.453 171.168C193.258 171.106 193.067 171.033 192.88 170.948C192.7 170.869 192.524 170.781 192.352 170.684L116.909 128.301L111.406 125.211L74.0166 104.206C73.9149 104.148 73.8403 104.052 73.809 103.939C73.7777 103.826 73.7922 103.706 73.8493 103.603C73.9066 103.502 74.0018 103.427 74.1141 103.396C74.2263 103.365 74.3465 103.379 74.4481 103.436L111.406 124.199L116.909 127.288L192.784 169.914C193.035 170.055 193.297 170.177 193.567 170.279C193.682 170.323 193.801 170.363 193.919 170.398C194.673 170.629 195.466 170.706 196.25 170.622C197.034 170.539 197.793 170.298 198.481 169.914L279.595 124.322L285.098 121.227L316.618 103.511C316.668 103.483 316.724 103.464 316.781 103.458C316.838 103.451 316.896 103.455 316.952 103.471C317.008 103.486 317.06 103.512 317.105 103.548C317.151 103.584 317.188 103.628 317.217 103.678C317.245 103.728 317.263 103.784 317.27 103.841C317.277 103.898 317.273 103.957 317.257 104.012C317.242 104.068 317.215 104.12 317.18 104.165C317.144 104.211 317.1 104.248 317.049 104.277V104.277Z" fill="#3F3D56"/>
<path d="M144.24 53.0507H131.912C130.978 53.0507 130.082 52.6797 129.421 52.0193C128.76 51.359 128.389 50.4633 128.389 49.5294C128.389 48.5955 128.76 47.6999 129.421 47.0395C130.082 46.3791 130.978 46.0081 131.912 46.0081H144.24C145.174 46.0081 146.07 46.3791 146.73 47.0395C147.391 47.6999 147.762 48.5955 147.762 49.5294C147.762 50.4633 147.391 51.359 146.73 52.0193C146.07 52.6797 145.174 53.0507 144.24 53.0507Z" fill="#045CFB"/>
<path d="M158.769 64.9351H131.912C130.978 64.9351 130.082 64.5641 129.421 63.9037C128.76 63.2434 128.389 62.3477 128.389 61.4138C128.389 60.4799 128.76 59.5842 129.421 58.9239C130.082 58.2635 130.978 57.8925 131.912 57.8925H158.769C159.703 57.8925 160.599 58.2635 161.26 58.9239C161.92 59.5842 162.291 60.4799 162.291 61.4138C162.291 62.3477 161.92 63.2434 161.26 63.9037C160.599 64.5641 159.703 64.9351 158.769 64.9351Z" fill="#D2D2D2"/>
<path d="M233.805 96.6268H157.635C156.701 96.6268 155.805 96.2558 155.145 95.5954C154.484 94.935 154.113 94.0394 154.113 93.1055C154.113 92.1716 154.484 91.2759 155.145 90.6155C155.805 89.9552 156.701 89.5842 157.635 89.5842H233.805C234.739 89.5842 235.635 89.9552 236.295 90.6155C236.956 91.2759 237.327 92.1716 237.327 93.1055C237.327 94.0394 236.956 94.935 236.295 95.5954C235.635 96.2558 234.739 96.6268 233.805 96.6268Z" fill="#045CFB"/>
<path d="M240.849 110.272H150.151C149.216 110.272 148.321 109.901 147.66 109.24C146.999 108.58 146.628 107.684 146.628 106.751C146.628 105.817 146.999 104.921 147.66 104.261C148.321 103.6 149.216 103.229 150.151 103.229H240.849C241.783 103.229 242.679 103.6 243.34 104.261C244.001 104.921 244.372 105.817 244.372 106.751C244.372 107.684 244.001 108.58 243.34 109.24C242.679 109.901 241.783 110.272 240.849 110.272Z" fill="#D2D2D2"/>
<path d="M240.849 123.477H150.151C149.216 123.477 148.321 123.106 147.66 122.445C146.999 121.785 146.628 120.889 146.628 119.955C146.628 119.021 146.999 118.126 147.66 117.465C148.321 116.805 149.216 116.434 150.151 116.434H240.849C241.783 116.434 242.679 116.805 243.34 117.465C244.001 118.126 244.372 119.021 244.372 119.955C244.372 120.889 244.001 121.785 243.34 122.445C242.679 123.106 241.783 123.477 240.849 123.477Z" fill="#D2D2D2"/>
<defs>
<filter id="filter0_f_442_1052" x="12" y="211" width="367" height="78" filterUnits="userSpaceOnUse" color-interpolation-filters="sRGB">
<feFlood flood-opacity="0" result="BackgroundImageFix"/>
<feBlend mode="normal" in="SourceGraphic" in2="BackgroundImageFix" result="shape"/>
<feGaussianBlur stdDeviation="6" result="effect1_foregroundBlur_442_1052"/>
</filter>
<radialGradient id="paint0_radial_442_1052" cx="0" cy="0" r="1" gradientUnits="userSpaceOnUse" gradientTransform="translate(195.5 250) rotate(0.693837) scale(171.513 2868.66)">
<stop stop-color="#151948" stop-opacity="0.26"/>
<stop offset="1" stop-color="#151948" stop-opacity="0"/>
</radialGradient>
</defs>
</svg>
