<svg width="465" height="410" viewBox="0 0 465 410" fill="none" xmlns="http://www.w3.org/2000/svg">
<g clip-path="url(#clip0_447_1140)">
<path d="M238.459 386.638C238.28 386.646 238.103 386.6 237.952 386.504C237.801 386.409 237.683 386.269 237.614 386.105C237.544 385.94 237.528 385.758 237.566 385.584C237.604 385.41 237.695 385.251 237.826 385.13L237.886 384.893L237.862 384.836C237.682 384.412 237.38 384.05 236.995 383.797C236.609 383.543 236.157 383.409 235.695 383.41C235.233 383.412 234.781 383.55 234.398 383.806C234.014 384.063 233.715 384.427 233.538 384.852C232.83 386.55 231.93 388.251 231.708 390.046C231.611 390.84 231.652 391.644 231.83 392.424C230.169 388.812 229.306 384.886 229.3 380.912C229.3 379.915 229.356 378.919 229.467 377.928C229.559 377.116 229.686 376.309 229.85 375.509C230.74 371.164 232.652 367.091 235.428 363.626C236.771 362.895 237.858 361.771 238.541 360.406C238.789 359.915 238.964 359.392 239.061 358.851C238.766 358.077 238.611 357.257 238.603 356.429C238.392 356.109 238.014 355.95 237.783 355.639C236.636 354.088 235.055 354.359 234.23 356.466C232.467 357.353 232.45 358.823 233.532 360.238C234.22 361.138 234.315 362.355 234.918 363.319C234.856 363.398 234.792 363.475 234.73 363.554C233.594 365.009 232.604 366.572 231.775 368.22C231.977 366.374 231.736 364.507 231.072 362.771C230.4 361.154 229.139 359.792 228.029 358.394C227.735 358.019 227.337 357.738 226.883 357.589C226.43 357.439 225.942 357.427 225.481 357.553C225.021 357.68 224.608 357.939 224.296 358.3C223.984 358.66 223.785 359.104 223.726 359.577L223.72 359.638C223.885 359.731 224.046 359.83 224.204 359.934C224.402 360.066 224.556 360.255 224.645 360.475C224.734 360.696 224.754 360.938 224.702 361.17C224.651 361.403 224.53 361.614 224.356 361.776C224.182 361.939 223.962 362.045 223.726 362.082L223.702 362.085C223.761 362.678 223.865 363.265 224.013 363.841C222.589 369.331 225.663 371.33 230.053 371.42C230.15 371.469 230.245 371.519 230.342 371.566C229.508 373.92 228.985 376.373 228.786 378.862C228.673 380.33 228.68 381.805 228.806 383.273L228.799 383.221C228.48 381.589 227.607 380.117 226.326 379.053C224.424 377.495 221.736 376.921 219.683 375.669C219.465 375.529 219.211 375.455 218.952 375.454C218.693 375.454 218.439 375.527 218.22 375.665C218.001 375.804 217.827 376.002 217.717 376.236C217.607 376.47 217.567 376.731 217.601 376.987L217.61 377.042C217.916 377.166 218.214 377.309 218.502 377.47C218.667 377.563 218.828 377.661 218.986 377.765C219.184 377.897 219.338 378.086 219.427 378.307C219.516 378.527 219.536 378.77 219.484 379.002C219.433 379.234 219.312 379.445 219.138 379.608C218.964 379.771 218.744 379.877 218.508 379.913L218.484 379.917L218.435 379.924C218.957 381.169 219.691 382.314 220.604 383.31C221.494 388.102 225.319 388.556 229.41 387.161H229.412C229.861 389.105 230.512 390.997 231.353 392.808H238.285C238.31 392.731 238.333 392.652 238.355 392.575C237.713 392.615 237.069 392.577 236.437 392.461C236.951 391.832 237.465 391.198 237.98 390.569C237.991 390.557 238.002 390.545 238.012 390.532C238.273 390.21 238.536 389.89 238.797 389.568L238.797 389.568C238.811 388.581 238.698 387.596 238.459 386.638L238.459 386.638Z" fill="#F2F2F2"/>
<path d="M411.431 386.638C411.61 386.646 411.787 386.6 411.938 386.504C412.089 386.409 412.207 386.269 412.276 386.105C412.345 385.94 412.362 385.758 412.324 385.584C412.286 385.41 412.195 385.251 412.063 385.13L412.004 384.893L412.027 384.836C412.208 384.412 412.509 384.05 412.895 383.797C413.281 383.543 413.733 383.409 414.195 383.41C414.657 383.412 415.108 383.55 415.492 383.806C415.876 384.063 416.175 384.427 416.352 384.852C417.059 386.55 417.96 388.251 418.182 390.046C418.279 390.84 418.238 391.644 418.06 392.424C419.721 388.812 420.584 384.886 420.589 380.912C420.59 379.915 420.534 378.919 420.423 377.928C420.331 377.116 420.203 376.309 420.04 375.509C419.15 371.164 417.238 367.091 414.462 363.626C413.118 362.895 412.032 361.771 411.349 360.406C411.101 359.915 410.926 359.392 410.829 358.851C411.124 358.077 411.278 357.257 411.286 356.429C411.498 356.109 411.876 355.95 412.106 355.639C413.254 354.088 414.834 354.359 415.66 356.466C417.422 357.353 417.439 358.823 416.358 360.238C415.67 361.138 415.575 362.355 414.971 363.319C415.033 363.398 415.098 363.475 415.16 363.554C416.296 365.009 417.285 366.572 418.115 368.22C417.913 366.374 418.154 364.507 418.818 362.771C419.49 361.154 420.751 359.792 421.861 358.394C422.154 358.019 422.553 357.738 423.007 357.589C423.46 357.439 423.948 357.427 424.408 357.553C424.869 357.68 425.281 357.939 425.594 358.3C425.906 358.66 426.104 359.104 426.163 359.577L426.17 359.638C426.005 359.731 425.844 359.83 425.686 359.934C425.488 360.066 425.334 360.255 425.245 360.475C425.156 360.696 425.136 360.938 425.188 361.17C425.239 361.403 425.36 361.614 425.534 361.776C425.708 361.939 425.928 362.045 426.163 362.082L426.187 362.085C426.129 362.678 426.025 363.265 425.877 363.841C427.301 369.331 424.226 371.33 419.836 371.42C419.74 371.469 419.645 371.519 419.548 371.566C420.382 373.92 420.905 376.373 421.104 378.862C421.216 380.33 421.21 381.805 421.084 383.273L421.091 383.221C421.409 381.589 422.283 380.117 423.564 379.053C425.466 377.495 428.154 376.921 430.207 375.669C430.425 375.529 430.679 375.455 430.938 375.454C431.197 375.454 431.451 375.527 431.67 375.665C431.889 375.804 432.063 376.002 432.173 376.236C432.282 376.47 432.323 376.731 432.288 376.987L432.28 377.042C431.974 377.166 431.676 377.309 431.388 377.47C431.223 377.563 431.062 377.661 430.904 377.765C430.705 377.897 430.552 378.086 430.463 378.307C430.374 378.527 430.354 378.77 430.406 379.002C430.457 379.234 430.578 379.445 430.752 379.608C430.926 379.771 431.146 379.877 431.381 379.913L431.405 379.917L431.455 379.924C430.932 381.169 430.199 382.314 429.286 383.31C428.396 388.102 424.571 388.556 420.48 387.161H420.477C420.029 389.105 419.378 390.997 418.537 392.808H411.604C411.58 392.731 411.557 392.652 411.535 392.575C412.176 392.615 412.821 392.577 413.453 392.461C412.939 391.832 412.424 391.198 411.91 390.569C411.899 390.557 411.888 390.545 411.878 390.532C411.617 390.21 411.353 389.89 411.093 389.568L411.092 389.568C411.078 388.581 411.192 387.596 411.43 386.638L411.431 386.638Z" fill="#F2F2F2"/>
<path d="M309.831 75.6058C308.659 73.239 306.786 71.2741 305.64 68.8945C304.495 66.5149 304.272 63.33 306.181 61.5087C307.801 59.9622 310.339 59.9405 312.277 58.8203C317.215 55.9664 317.209 46.9019 322.853 46.1186C325.598 45.7378 328.081 47.8027 329.74 50.0291C331.399 52.2556 332.721 54.8536 335.022 56.4026C337.626 58.1561 340.993 58.2324 343.885 59.4503C349.43 61.7855 352.337 67.7902 354.768 73.3085C356.334 76.8635 357.936 80.6977 357.209 84.5154C358.788 85.5012 358.085 88.1526 356.508 89.143C354.932 90.1334 352.952 90.1114 351.142 90.5403C347.338 91.442 344.222 94.4802 342.746 98.1113C341.595 100.941 341.359 104.049 341.137 107.097C340.752 112.387 340.367 117.677 339.981 122.966C339.81 125.32 339.585 127.821 338.157 129.696C336.729 131.571 333.637 132.357 332.032 130.632C330.498 128.984 331.189 126.374 331.22 124.119C331.251 121.864 329.219 119.056 327.303 120.236L326.628 118.698C322.252 117.126 318.42 114.323 315.591 110.623C312.762 106.923 311.056 102.484 310.677 97.8362C310.188 90.3506 313.157 82.3243 309.831 75.6058Z" fill="#E6E6E6"/>
<path d="M305.359 123.073C304.936 122.673 304.636 122.161 304.495 121.596C304.353 121.031 304.375 120.437 304.559 119.884C304.742 119.331 305.08 118.843 305.531 118.476C305.982 118.109 306.529 117.879 307.106 117.814L307.099 118.068C307.922 118.551 308.862 118.798 309.815 118.784C310.765 118.769 311.711 118.92 312.61 119.229C313.057 119.392 313.444 119.687 313.721 120.075C313.998 120.463 314.151 120.926 314.16 121.403C314.108 121.769 313.969 122.116 313.754 122.416C313.539 122.717 313.255 122.96 312.927 123.127C312.267 123.453 311.558 123.669 310.829 123.766C308.95 124.12 306.75 124.389 305.359 123.073Z" fill="#E6E6E6"/>
<path d="M268.714 75.7311C267.927 75.1941 267.258 74.4999 266.751 73.692C266.505 73.2832 266.388 72.8094 266.415 72.3327C266.443 71.8561 266.613 71.3988 266.904 71.021C267.497 70.5053 268.259 70.2289 269.043 70.2457C271.173 70.0862 273.314 70.3394 275.348 70.9915C273.259 72.8482 271.17 74.7049 269.081 76.5616L268.714 75.7311Z" fill="#E6E6E6"/>
<path d="M279.16 80.5598C278.316 81.4947 278.585 82.945 278.824 84.1836C279.063 85.4222 279.094 86.9699 278.032 87.6457C277.111 88.2313 275.82 87.7534 275.146 86.8934C274.545 85.9763 274.178 84.9242 274.079 83.8306C273.748 82.2412 273.599 80.6192 273.633 78.996C273.673 77.3606 274.248 75.7837 275.27 74.5087C275.995 73.6794 276.961 73.0986 278.031 72.8477C279.102 72.5967 280.224 72.6882 281.24 73.1093L280.27 73.0613C280.975 73.9701 281.51 75.0001 281.849 76.1009C282.011 76.6539 282.022 77.2403 281.882 77.7993C281.742 78.3583 281.455 78.8694 281.051 79.2795C280.475 79.7821 279.673 79.9923 279.16 80.5598Z" fill="#E6E6E6"/>
<path d="M231.541 64.8795L231.369 64.3464C232.09 64.7652 232.647 65.42 232.944 66.2012C233.242 66.9824 233.264 67.8425 233.005 68.6377C232.45 68.1984 232.022 67.6186 231.764 66.958C231.507 66.2975 231.43 65.58 231.541 64.8795Z" fill="#E6E6E6"/>
<path d="M240.922 72.5102C240.003 71.9882 239.219 71.2574 238.632 70.3765C238.045 69.4956 237.672 68.4891 237.543 67.4376C237.444 66.7838 237.519 66.1152 237.762 65.5003C237.887 65.195 238.085 64.9253 238.338 64.7153C238.592 64.5052 238.893 64.3613 239.215 64.2963L239.608 64.9169C240.172 64.4302 241.119 64.9307 241.356 65.6379C241.509 66.3721 241.445 67.1351 241.173 67.8337C240.901 68.5365 240.914 69.3179 241.208 70.0117C241.524 70.4197 241.881 70.7953 242.271 71.1328C242.462 71.3071 242.587 71.5424 242.624 71.7987C242.661 72.0549 242.608 72.3161 242.474 72.5376C242.105 72.9615 241.413 72.7836 240.922 72.5102Z" fill="#E6E6E6"/>
<path d="M244.921 69.0432C244.585 68.4358 244.426 67.7456 244.463 67.0517L245.323 66.7813C245.872 67.0048 246.359 67.3583 246.743 67.8118C246.859 67.929 246.949 68.0705 247.004 68.2263C247.06 68.3821 247.08 68.5483 247.064 68.713C247.048 68.8776 246.996 69.0367 246.912 69.1788C246.827 69.321 246.713 69.4426 246.576 69.535C246.439 69.6275 246.284 69.6885 246.121 69.7136C245.958 69.7387 245.791 69.7274 245.633 69.6804C245.475 69.6334 245.329 69.5519 245.206 69.4417C245.083 69.3316 244.986 69.1955 244.921 69.0432V69.0432Z" fill="#E6E6E6"/>
<path d="M202.91 64.6794C202.832 64.7447 202.755 64.8118 202.677 64.8777C202.609 64.8633 202.544 64.8374 202.474 64.8288L202.91 64.6794Z" fill="#E6E6E6"/>
<path d="M204.288 72.2472C203.498 71.6067 202.709 70.9663 201.92 70.3259C201.501 70.0283 201.144 69.6515 200.868 69.2166C200.68 68.8048 200.599 68.352 200.632 67.9003C200.666 67.4485 200.812 67.0126 201.059 66.6332C201.496 65.9606 202.043 65.3671 202.677 64.8779C203.374 65.0434 203.986 65.4596 204.398 66.0476C204.81 66.6355 204.992 67.3546 204.911 68.0684C204.768 68.9764 204.2 69.9475 204.664 70.7401C204.844 71.0488 205.155 71.2589 205.363 71.5495C205.572 71.8401 205.639 72.303 205.353 72.5167C205.035 72.7539 204.596 72.4971 204.288 72.2472Z" fill="#E6E6E6"/>
<path d="M202.562 76.1675C202.268 76.1833 201.975 76.1356 201.701 76.0276C201.428 75.9197 201.181 75.754 200.977 75.5418C199.922 74.6746 198.999 73.6574 198.238 72.5225C200.013 73.0867 201.789 73.6509 203.564 74.2151L203.011 74.8646C203.503 75.1865 203.138 76.0567 202.562 76.1675Z" fill="#E6E6E6"/>
<path d="M197.585 79.8338C197.477 80.1116 197.281 80.3462 197.027 80.5017C196.773 80.6571 196.476 80.7249 196.18 80.6947C195.885 80.6553 195.603 80.5516 195.352 80.3908C195.102 80.2301 194.89 80.0162 194.731 79.7643C194.461 79.365 194.302 78.9006 194.271 78.4192C194.24 77.9378 194.338 77.4567 194.554 77.0259C194.771 76.5951 195.098 76.23 195.502 75.9686C195.906 75.7071 196.373 75.5587 196.853 75.5388L196.363 76.2901C196.238 77.5727 197.976 78.6063 197.585 79.8338Z" fill="#E6E6E6"/>
<path d="M163.101 93.8812C162.621 94.2407 162.037 94.4342 161.438 94.4328C160.839 94.4314 160.256 94.235 159.778 93.8732C159.468 93.6074 159.215 93.2801 159.037 92.9119C158.859 92.5438 158.758 92.1426 158.742 91.7336C158.725 91.3246 158.793 90.9165 158.94 90.535C159.088 90.1535 159.313 89.8067 159.601 89.5164L160.508 90.0243C161.011 89.7 161.619 89.5841 162.206 89.701C162.792 89.8178 163.311 90.1583 163.652 90.6509C163.958 91.1671 164.07 91.7759 163.969 92.3679C163.868 92.9599 163.56 93.4964 163.101 93.8812V93.8812Z" fill="#E6E6E6"/>
<path d="M152.555 95.0788C152.114 94.9501 151.713 94.7099 151.39 94.3811C151.067 94.0523 150.834 93.6459 150.713 93.2009L152.476 92.9684C152.966 92.5969 153.537 92.3467 154.142 92.2383C154.446 92.1927 154.755 92.2531 155.02 92.4093C155.284 92.5655 155.487 92.808 155.594 93.0963C155.631 93.3416 155.606 93.5924 155.519 93.8249C155.433 94.0573 155.288 94.2637 155.1 94.4243C154.767 94.7427 154.358 94.9701 153.913 95.0847C153.467 95.1993 153 95.1973 152.555 95.0788V95.0788Z" fill="#E6E6E6"/>
<path d="M159.836 98.6148C159.805 98.9025 159.693 99.1754 159.513 99.4017C159.333 99.6279 159.093 99.798 158.82 99.8923C158.522 100.034 158.188 100.083 157.862 100.032C157.536 99.9816 157.233 99.8339 156.992 99.6082C156.885 99.4877 156.809 99.3434 156.769 99.1873C156.73 99.0313 156.728 98.868 156.764 98.711C156.799 98.554 156.872 98.4078 156.975 98.2846C157.079 98.1615 157.21 98.0648 157.358 98.0027L158.68 97.7615C159.191 97.4961 159.844 98.0377 159.836 98.6148Z" fill="#E6E6E6"/>
<path d="M236.55 107.941L237.573 107.004C237.301 107.384 236.952 107.704 236.55 107.941Z" fill="#E6E6E6"/>
<path d="M244.366 102.421C243.736 105.356 240.584 107.748 237.724 106.866L237.573 107.004C238.484 105.753 238.638 103.903 238.425 102.294C238.031 99.5365 236.95 96.9233 235.283 94.6953C233.616 92.4673 231.417 90.6964 228.888 89.5459C228.196 89.329 227.576 88.9241 227.099 88.3761C226.691 87.778 226.843 86.7523 227.545 86.5834C227.927 86.5396 228.312 86.629 228.636 86.8366L233.952 89.4615C236.637 90.7873 239.376 92.1511 241.485 94.2811C243.594 96.4112 244.995 99.4863 244.366 102.421Z" fill="#E6E6E6"/>
<path d="M330.18 203.347C335.133 199.789 340.558 196.945 346.298 194.897C349.825 193.639 353.615 192.679 357.291 193.393C359.307 193.811 361.195 194.701 362.804 195.989C364.413 197.277 365.695 198.928 366.549 200.807C367.371 202.7 367.757 204.754 367.68 206.817C367.602 208.88 367.062 210.899 366.101 212.724C364.406 215.911 361.471 218.448 360.49 221.923C359.828 224.266 360.141 226.76 360.46 229.174C361.111 234.107 361.761 239.039 362.412 243.972C363.004 248.463 363.582 253.137 362.164 257.438C360.747 261.739 356.703 265.531 352.21 265.074L351.32 265.007C354.291 262.98 355.124 258.782 354.24 255.288C353.355 251.793 351.109 248.83 348.916 245.974C342.409 237.497 335.902 229.02 329.394 220.543C326.762 217.113 323.977 212.874 325.381 208.781C326.179 206.454 328.186 204.779 330.18 203.347Z" fill="#E6E6E6"/>
<path d="M374.527 181.917C375.186 181.693 375.882 182.191 376.269 182.771C376.582 183.394 376.95 183.987 377.369 184.544C378.382 185.592 380.23 185.384 381.323 184.42C382.416 183.455 382.89 181.964 383.102 180.519C383.357 178.785 383.247 176.851 382.106 175.524C380.932 174.158 379.002 173.791 377.227 173.507C375.392 173.214 373.337 172.97 371.835 174.065C370.888 174.755 370.336 175.868 369.459 176.645C368.583 177.422 367.023 177.716 366.363 176.747C366.19 176.404 366.103 176.023 366.108 175.639C366.114 175.254 366.212 174.876 366.395 174.538C366.766 173.864 366.989 173.118 367.049 172.35C367.005 171.285 366.152 170.438 365.28 169.829C364.407 169.22 363.422 168.695 362.849 167.796C362.145 166.691 362.22 165.268 361.783 164.031C360.726 161.039 356.953 159.708 355.854 156.732C355.59 156.105 355.56 155.404 355.771 154.758C356.231 153.572 357.474 153.805 357.55 152.355C357.623 150.969 356.47 149.61 355.299 149.031C353.684 148.232 351.802 148.297 350.002 148.249C348.203 148.2 346.264 147.96 344.943 146.733C344.516 146.291 344.186 145.763 343.976 145.185C343.766 144.606 343.68 143.989 343.724 143.375C343.768 142.761 343.94 142.163 344.23 141.62C344.52 141.077 344.921 140.602 345.407 140.225C346.391 139.544 347.635 139.307 348.593 138.588C349.785 137.692 350.35 136.201 351.279 135.033C352.052 134.143 352.936 133.358 353.909 132.696C354.707 132.103 355.504 131.509 356.301 130.916C357.742 129.844 359.241 128.744 360.994 128.361C362.747 127.979 364.835 128.52 365.714 130.09C366.06 130.789 366.249 131.557 366.268 132.338C366.348 134.176 366.271 136.018 366.039 137.844C365.894 139.313 365.75 140.783 365.605 142.252C365.475 143.57 365.615 145.306 366.889 145.648C369.717 146.407 368.763 142.212 369.39 140.927C370.35 138.96 374.761 138.015 376.646 137.196C377.824 136.684 379.067 136.119 379.778 135.047C380.663 133.713 380.481 131.897 379.787 130.454C379.093 129.01 377.962 127.836 376.935 126.608C375.888 125.357 374.934 124.031 373.982 122.706C372.877 121.169 371.773 119.633 370.668 118.096C369.252 116.125 367.762 113.72 368.567 111.428C368.741 111.122 369.002 110.873 369.316 110.715C369.631 110.556 369.985 110.494 370.334 110.536C370.683 110.579 371.013 110.723 371.28 110.952C371.548 111.181 371.742 111.485 371.839 111.824C372.192 113.061 371.251 114.641 372.151 115.558C372.459 115.807 372.845 115.94 373.241 115.932C373.637 115.925 374.018 115.778 374.316 115.517C374.899 114.977 375.343 114.304 375.611 113.554C376.701 111.123 377.763 108.677 378.883 106.259C379.237 105.494 379.606 104.186 380.678 104.314C381.609 104.426 382.112 105.787 382.08 106.577C382.033 107.727 381.399 108.754 380.915 109.798C380.431 110.841 380.093 112.093 380.624 113.113C381.297 114.404 383.002 114.694 384.453 114.651C387.189 114.568 389.87 113.858 392.291 112.576C392.354 113.926 392.418 115.275 392.481 116.624C394.407 115.815 396.334 115.006 398.261 114.197C398.635 114.04 399.009 113.882 399.384 113.725C401.009 113.043 402.636 112.36 404.309 111.806C405.259 111.491 406.222 111.219 407.185 110.946C407.77 110.781 408.355 110.615 408.941 110.45C410.095 110.039 411.32 109.864 412.543 109.934C413.829 110.096 414.975 110.789 416.163 111.306C418.815 112.461 422.245 111.299 425.086 111.279C426.213 109.628 427.735 108.287 429.512 107.379C431.289 106.47 433.265 106.023 435.259 106.079C437.252 106.134 439.201 106.69 440.925 107.696C442.649 108.702 444.094 110.125 445.129 111.836C445.628 112.703 446.073 113.6 446.461 114.523C446.846 115.39 447.232 116.257 447.617 117.123C448.183 118.395 448.761 119.735 448.65 121.123C448.539 122.511 447.478 123.929 446.09 123.916C449.363 125.402 450.044 130.604 447.265 132.888C446.495 133.52 445.552 133.934 444.859 134.65C444.336 135.192 443.986 135.878 443.854 136.62C443.722 137.363 443.814 138.128 444.119 138.818C444.423 139.508 444.926 140.09 445.563 140.491C446.2 140.892 446.942 141.092 447.693 141.067C445.754 141.819 443.619 141.889 441.635 141.266C439.651 140.642 437.937 139.363 436.772 137.635C435.584 135.769 435.068 133.438 433.451 131.929C431.311 129.932 427.775 130.087 425.306 131.658C422.837 133.228 421.275 135.902 420.201 138.63C418.793 142.204 417.892 146.288 414.893 148.679C413.443 149.835 411.606 150.486 410.324 151.827C408.499 153.737 408.183 156.621 408.224 159.267C408.265 161.913 408.549 164.658 407.588 167.123C406.628 169.587 403.873 171.615 401.403 170.686C402.111 172.792 402.089 175.076 401.342 177.168C400.594 179.26 399.165 181.038 397.285 182.214C397.735 179.414 398.185 176.614 398.635 173.813C396.392 174.447 394.938 176.629 394.099 178.81C393.259 180.99 392.815 183.348 391.599 185.342C389.682 188.481 386.212 189.833 382.682 189.821C378.869 189.808 377.421 187.984 374.908 185.298C374.403 184.84 374.02 184.263 373.793 183.619C373.69 183.294 373.708 182.943 373.843 182.63C373.978 182.318 374.221 182.065 374.527 181.917V181.917Z" fill="#E6E6E6"/>
<path d="M363.729 181.778C365.86 181.442 367.992 181.106 370.123 180.77C369.006 181.444 367.888 182.118 366.771 182.792C365.839 183.414 364.826 183.903 363.76 184.247C363.226 184.415 362.663 184.472 362.106 184.413C361.549 184.354 361.009 184.181 360.522 183.905L360.795 183.381C361.224 182.291 362.574 181.96 363.729 181.778Z" fill="#E6E6E6"/>
<path d="M365.177 193.664L365.162 193.627C365.291 193.413 365.481 193.242 365.707 193.136C365.934 193.031 366.187 192.996 366.433 193.036C366.924 193.124 367.426 193.132 367.92 193.06C368.233 192.937 368.513 192.741 368.735 192.487C368.957 192.234 369.116 191.93 369.198 191.603C369.41 190.963 369.472 190.279 369.714 189.65C369.888 189.153 370.196 188.713 370.603 188.38C371.01 188.047 371.501 187.833 372.022 187.761C372.544 187.719 373.063 187.885 373.464 188.223C373.866 188.561 374.118 189.044 374.168 189.568C374.127 190.107 373.956 190.628 373.67 191.086C373.44 191.53 373.21 191.974 372.98 192.417C372.787 192.815 372.564 193.198 372.314 193.562C371.907 194.125 371.374 194.584 370.759 194.904C370.144 195.225 369.463 195.396 368.771 195.406C368.078 195.416 367.392 195.264 366.769 194.961C366.145 194.659 365.6 194.215 365.177 193.664V193.664Z" fill="#E6E6E6"/>
<path d="M377.625 79.8707C376.002 80.8307 373.97 81.4922 373.199 83.2168L372.754 83.361C373.239 83.9659 373.724 84.5709 374.209 85.1758C374.809 85.9234 375.44 86.7563 375.426 87.7158C375.406 89.0373 374.139 90.0342 372.859 90.3457C371.493 90.6277 370.071 90.3904 368.87 89.6799C367.668 88.9694 366.772 87.8364 366.357 86.5007C366.204 85.9436 366.142 85.3659 366.008 84.804C365.619 83.4715 365.032 82.2055 364.266 81.0488C359.956 73.7748 355.646 66.5007 351.336 59.2267C350.8 58.3208 350.246 57.2371 350.65 56.2642C350.865 55.8526 351.199 55.5152 351.607 55.2954C352.015 55.0757 352.48 54.9835 352.941 55.031C353.86 55.143 354.748 55.4424 355.548 55.9107C355.904 55.2841 356.406 54.7534 357.011 54.3643C357.616 53.9751 358.306 53.7391 359.022 53.6765C360.454 53.5657 361.894 53.6915 363.285 54.049C366.428 54.5247 369.458 55.5692 372.229 57.1315C373.745 57.9002 375.413 58.8496 375.852 60.4954C376.393 62.5199 374.65 64.5832 372.643 65.165C370.636 65.7469 368.494 65.2582 366.462 64.7685C366.232 65.7564 366.328 66.7924 366.735 67.7212C367.142 68.65 367.837 69.4215 368.718 69.9202C369.598 70.4189 370.616 70.6178 371.619 70.4872C372.622 70.3566 373.556 69.9034 374.28 69.1957C375.736 67.7733 376.449 65.304 378.448 64.9369C380.441 64.5709 382.025 66.7033 382.465 68.6874C382.895 70.8243 382.662 73.0422 381.797 75.0419C380.931 77.0417 379.475 78.727 377.625 79.8707Z" fill="#E6E6E6"/>
<path d="M352.629 114.872C353.589 112.158 354.85 109.562 356.389 107.131C357.556 105.209 358.996 103.469 360.663 101.964C362.188 100.644 363.939 99.6141 365.833 98.9261C367.671 98.2593 369.717 97.93 371.575 98.5379C373.433 99.1459 375.013 100.879 374.975 102.839C374.934 105.006 373.044 106.702 371.074 107.592C369.103 108.483 366.912 108.87 365.053 109.976C363.79 110.745 362.733 111.813 361.978 113.088C361.222 114.362 360.79 115.803 360.719 117.284L360.251 118.061C361.312 118.413 362.301 118.953 363.172 119.656C363.603 120.013 363.932 120.478 364.127 121.003C364.322 121.529 364.375 122.097 364.281 122.65C363.956 123.962 362.62 124.715 361.412 125.316C359.18 126.425 356.948 127.533 354.717 128.642C355.853 125.243 352.132 122.079 351.926 118.5C351.919 117.256 352.157 116.023 352.629 114.872V114.872Z" fill="#E6E6E6"/>
<path d="M408.75 105.694C407.396 106.748 405.314 106.255 404.074 105.068C402.833 103.881 402.229 102.191 401.666 100.567C401.872 102.175 401.852 103.803 401.608 105.406C401.481 106.207 401.189 106.973 400.752 107.655C400.314 108.338 399.74 108.921 399.066 109.37C398.454 109.706 397.794 109.947 397.11 110.084C393.927 110.811 390.601 110.572 387.554 109.399L387.527 108.354C389.058 108.529 390.216 106.845 390.317 105.302C390.418 103.76 389.86 102.247 389.811 100.702C389.762 99.1575 390.504 97.3525 392.02 97.0776C391.755 97.6123 391.658 98.2153 391.743 98.8065C391.828 99.3978 392.09 99.9491 392.495 100.387C392.899 100.825 393.427 101.129 394.009 101.259C394.59 101.388 395.197 101.337 395.748 101.112C397.503 100.396 398.141 98.2515 399.497 96.9244C400.335 96.1766 401.374 95.694 402.485 95.5373C403.596 95.3806 404.728 95.5568 405.739 96.0437C406.737 96.5547 407.613 97.277 408.305 98.1608C408.998 99.0446 409.491 100.069 409.751 101.162C410.163 102.749 410.041 104.688 408.75 105.694Z" fill="#E6E6E6"/>
<path d="M366.964 94.6855L366.902 94.5831C367.28 93.4882 368.451 92.8462 369.595 92.6832C370.747 92.6069 371.905 92.6453 373.05 92.7978C374.206 92.9478 375.378 92.6889 376.364 92.0656C377.151 91.4752 377.599 90.5464 378.229 89.789C378.858 89.0317 379.877 88.4089 380.791 88.771C381.78 89.1631 382.044 90.5547 381.564 91.5073C380.998 92.4215 380.145 93.1204 379.139 93.4933C375.328 95.248 371.041 95.6678 366.964 94.6855V94.6855Z" fill="#E6E6E6"/>
<path d="M379.971 97.9676C380.287 98.2003 380.502 98.5467 380.57 98.9344C380.637 99.3221 380.553 99.7211 380.334 100.048C380.115 100.375 379.779 100.604 379.396 100.688C379.012 100.771 378.612 100.703 378.277 100.497L377.943 100.828C377.499 100.03 377.316 98.9613 377.884 98.247C378.136 97.9508 378.489 97.7585 378.874 97.707C379.259 97.6554 379.65 97.7482 379.971 97.9676V97.9676Z" fill="#E6E6E6"/>
<path d="M383.878 100.829C383.873 100.544 383.954 100.265 384.111 100.027C384.268 99.789 384.492 99.6043 384.756 99.4971C384.935 99.4662 385.118 99.4721 385.295 99.5143C385.472 99.5565 385.639 99.6342 385.785 99.7428C385.931 99.8513 386.054 99.9884 386.146 100.146C386.238 100.303 386.297 100.478 386.32 100.659C386.348 101.027 386.299 101.398 386.178 101.747C386.057 102.096 385.866 102.416 385.616 102.688C385.471 102.907 385.281 103.093 385.059 103.233C384.837 103.373 384.588 103.464 384.328 103.5C383.805 103.517 383.271 102.968 383.483 102.488L384.282 102.472C384.036 101.959 383.898 101.399 383.878 100.829V100.829Z" fill="#E6E6E6"/>
<path d="M399.503 92.6205C399.209 92.8591 398.916 93.0977 398.622 93.3363C398.114 93.7771 397.565 94.1682 396.983 94.5043C395.964 95.0704 394.766 95.2175 393.641 94.9146C393.086 94.7558 392.58 94.4593 392.169 94.0524C391.758 93.6455 391.456 93.1414 391.29 92.5866C390.939 91.2603 391.511 89.8831 392.071 88.6312C392.199 88.273 392.41 87.9504 392.687 87.69C392.828 87.5641 393.009 87.4912 393.198 87.4838C393.387 87.4763 393.573 87.5347 393.724 87.6491C393.834 87.786 393.907 87.9488 393.936 88.1219C393.965 88.2951 393.95 88.4728 393.892 88.6383C393.771 88.9681 393.716 89.3183 393.73 89.6693C393.785 90.0155 394.147 90.3427 394.467 90.1995L394.517 91.3779C396.041 90.6041 396.847 88.5461 398.542 88.3432C398.923 88.2976 399.308 88.3578 399.657 88.5171C400.006 88.6764 400.305 88.9288 400.52 89.2467C400.736 89.5645 400.86 89.9357 400.88 90.3197C400.9 90.7037 400.814 91.0857 400.632 91.4241C400.338 91.8935 399.954 92.3001 399.503 92.6205V92.6205Z" fill="#E6E6E6"/>
<path d="M403.131 87.5335C402.779 87.2911 402.5 86.9557 402.326 86.5644C402.151 86.1731 402.088 85.741 402.142 85.3159C402.184 85.1099 402.271 84.9159 402.397 84.7474C402.522 84.579 402.683 84.4404 402.868 84.3414C403.053 84.2424 403.257 84.1855 403.466 84.1747C403.676 84.164 403.885 84.1996 404.079 84.2791C404.514 84.6056 404.82 85.0763 404.942 85.6077C405.343 86.744 405.745 87.8803 406.147 89.0167L405.472 88.524C404.637 88.3436 403.843 88.0076 403.131 87.5335V87.5335Z" fill="#E6E6E6"/>
<path d="M395.311 80.5599C395.19 80.4073 395.105 80.2301 395.06 80.0408C395.015 79.8514 395.012 79.6544 395.051 79.4637C395.09 79.2731 395.17 79.0933 395.286 78.9371C395.402 78.7809 395.55 78.6521 395.721 78.5597L396.565 78.4805C396.757 78.5293 396.935 78.6224 397.084 78.7526C397.234 78.8827 397.351 79.0462 397.426 79.2299C397.501 79.4136 397.532 79.6124 397.517 79.8103C397.501 80.0083 397.44 80.1999 397.338 80.3698C397.235 80.5397 397.094 80.6831 396.927 80.7886C396.759 80.894 396.569 80.9586 396.372 80.9771C396.175 80.9956 395.976 80.9674 395.792 80.895C395.608 80.8225 395.443 80.7078 395.311 80.5599V80.5599Z" fill="#E6E6E6"/>
<path d="M387.547 81.8666C386.76 82.2445 385.763 82.6047 385.078 82.062C384.875 81.8777 384.724 81.6431 384.641 81.3817C384.557 81.1203 384.543 80.8414 384.601 80.573C384.724 80.0377 384.962 79.5357 385.298 79.1017C386.345 77.5928 387.676 76.3034 389.216 75.3058L389.597 75.8021C390.129 77.1874 390.642 78.8046 389.9 80.0892C389.4 80.9551 388.447 81.4346 387.547 81.8666Z" fill="#E6E6E6"/>
<path d="M381.681 83.0995L380.209 83.7677C380.353 83.5152 380.573 83.3148 380.837 83.1949C381.102 83.075 381.397 83.0416 381.681 83.0995Z" fill="#E6E6E6"/>
<path d="M385.649 87.7476L386.345 87.9776C386.937 88.953 386.68 90.2003 386.405 91.3082C386.231 92.0086 385.856 92.8705 385.137 92.8386C384.437 92.8076 384.128 91.9568 383.994 91.2674C383.784 90.5186 383.761 89.7295 383.928 88.9698C384.022 88.5937 384.248 88.2639 384.564 88.0398C384.879 87.8157 385.264 87.7121 385.649 87.7476V87.7476Z" fill="#E6E6E6"/>
<path d="M396.745 84.4646L396.23 84.6726C396.11 84.6553 395.998 84.5986 395.913 84.5112C395.828 84.4238 395.773 84.3106 395.759 84.1891C395.744 84.0677 395.77 83.9448 395.832 83.8395C395.894 83.7342 395.989 83.6523 396.102 83.6066C396.215 83.561 396.34 83.554 396.457 83.5868C396.575 83.6196 396.678 83.6903 396.752 83.7881C396.825 83.8858 396.864 84.0051 396.863 84.1274C396.862 84.2497 396.82 84.3682 396.745 84.4646Z" fill="#E6E6E6"/>
<path d="M370.79 123.959C371.039 123.964 371.284 124.03 371.503 124.149C371.722 124.269 371.909 124.439 372.05 124.647C372.19 124.854 372.278 125.091 372.308 125.34C372.338 125.588 372.309 125.84 372.222 126.075C371.716 127.167 369.975 127.172 369.201 126.251C369.003 125.99 368.861 125.69 368.784 125.37C368.707 125.051 368.697 124.719 368.755 124.396C368.812 124.072 368.936 123.764 369.118 123.491C369.3 123.218 369.536 122.986 369.812 122.809L370.79 123.959Z" fill="#E6E6E6"/>
<path d="M345.712 149.831C345.914 149.885 346.104 149.98 346.269 150.108C346.434 150.237 346.572 150.398 346.675 150.581C346.777 150.765 346.842 150.967 346.865 151.176C346.888 151.384 346.87 151.596 346.81 151.797L345.365 151.898C344.875 151.652 344.385 151.405 343.896 151.158C343.926 150.95 343.996 150.751 344.104 150.57C344.212 150.39 344.355 150.234 344.524 150.11C344.694 149.986 344.886 149.898 345.09 149.85C345.294 149.802 345.505 149.796 345.712 149.831V149.831Z" fill="#E6E6E6"/>
<path d="M351.587 151.625C352.001 151.92 352.333 152.315 352.552 152.774C352.771 153.233 352.87 153.74 352.84 154.248C352.793 154.755 352.586 155.234 352.25 155.615C351.914 155.996 351.465 156.26 350.97 156.368C350.469 156.447 349.958 156.332 349.539 156.047C349.12 155.762 348.824 155.328 348.712 154.832C348.467 153.332 350.074 152.234 350.652 150.828L351.587 151.625Z" fill="#E6E6E6"/>
<path d="M295.444 141.718C295.291 142.845 296.303 143.831 296.34 144.967C296.385 146.314 294.923 147.363 293.585 147.231C292.921 147.115 292.293 146.847 291.75 146.447C291.207 146.046 290.764 145.525 290.456 144.924L290.427 144.798C291.078 144.059 291.73 143.321 292.381 142.582C293.181 141.675 294.029 140.642 293.998 139.431C293.982 138.834 293.748 138.256 293.761 137.659C293.793 137.229 293.888 136.807 294.045 136.406C294.221 135.878 294.461 135.283 294.987 135.104C295.646 134.881 296.31 135.467 296.624 136.089C296.907 136.662 297.044 137.297 297.024 137.936C297.004 138.576 296.828 139.201 296.51 139.755C296.129 140.403 295.545 140.973 295.444 141.718Z" fill="#E6E6E6"/>
<path d="M301.588 145.68C301.445 145.758 301.288 145.803 301.126 145.813C300.965 145.824 300.803 145.799 300.652 145.741C300.071 145.641 299.513 145.438 299.004 145.14C298.752 144.988 298.544 144.771 298.403 144.512C298.261 144.252 298.191 143.96 298.199 143.664C298.287 143.293 298.483 142.956 298.762 142.696C299.041 142.436 299.39 142.265 299.766 142.205C300.027 142.112 300.307 142.086 300.58 142.128C300.853 142.17 301.112 142.279 301.334 142.445C301.819 142.902 301.761 143.677 301.666 144.338L301.769 144.51C301.86 144.918 301.918 145.426 301.588 145.68Z" fill="#E6E6E6"/>
<path d="M199.042 193.804C199.183 193.453 199.324 193.101 199.465 192.75C199.658 193.227 199.586 193.715 199.042 193.804Z" fill="#E6E6E6"/>
<path d="M114.453 119.86C116.261 117.892 117.369 116.757 118.511 114.318C119.132 112.972 120.076 111.802 121.258 110.911C122.44 110.021 123.823 109.438 125.284 109.214C129.036 108.594 132.87 109.576 136.667 109.379C142.748 109.064 148.232 105.792 154.057 104.007C157.318 103.09 160.639 102.403 163.995 101.95C165.929 101.643 167.863 101.337 169.797 101.03C176.137 100.024 182.517 99.0152 188.934 99.1487C190.785 99.1873 193.362 98.6293 193.214 96.7785C193.03 94.4798 188.908 94.7816 188.115 92.617C187.624 91.278 188.798 89.8721 190.086 89.2667C191.373 88.6612 192.86 88.4791 194.028 87.6662C195.197 86.8534 195.837 84.969 194.763 84.0339C197.74 85.5649 200.717 87.0959 203.693 88.6268C206.168 89.8997 208.934 91.5557 209.371 94.3112C210.862 94.7065 212.167 95.6161 213.057 96.8803C214.731 96.889 216.047 98.5018 216.323 100.159C216.6 101.816 216.098 103.492 215.601 105.097C216.209 103.93 216.854 102.718 217.924 101.956C218.995 101.195 220.625 101.05 221.537 101.996C222.474 102.967 222.255 104.596 221.592 105.772C220.93 106.948 219.912 107.897 219.287 109.094C217.334 112.832 220.872 118.094 225.058 117.677C224.777 113.818 224.496 109.959 224.216 106.099C224.038 104.912 224.137 103.7 224.506 102.558C224.963 101.453 226.132 100.546 227.295 100.806C229.387 101.275 229.209 104.35 228.338 106.315C227.468 108.28 226.601 111.013 228.377 112.217C229.524 112.994 231.08 112.514 232.318 111.894C233.557 111.273 234.881 110.509 236.235 110.799C237.589 111.089 238.44 113.165 237.244 113.864C239.228 113.518 241.211 113.172 243.195 112.826C243.293 113.412 243.513 113.971 243.84 114.466C244.167 114.961 244.593 115.382 245.093 115.702C245.592 116.021 246.152 116.232 246.738 116.321C247.323 116.409 247.921 116.374 248.492 116.216C248.686 115.407 248.881 114.597 249.076 113.787C249.366 113.706 249.656 113.625 249.946 113.544C249.035 113.799 250.461 117.654 251.739 120.598C253.457 120.396 255.968 120.357 256.254 119.864C257.626 117.498 257.463 111.865 259.847 110.534C261.042 109.867 262.268 109.259 263.524 108.71C264.184 108.395 264.881 108.165 265.599 108.027C267.063 107.795 268.538 108.251 269.951 108.701C271.62 109.232 273.328 109.784 274.709 110.863C275.889 111.89 276.901 113.097 277.707 114.439C280.435 118.49 283.164 122.542 285.892 126.593C286.705 127.675 287.345 128.877 287.788 130.157C287.997 130.793 288.067 131.467 287.992 132.133C287.918 132.799 287.701 133.441 287.356 134.015C286.993 134.577 286.452 135.001 285.82 135.218C285.188 135.435 284.501 135.432 283.871 135.209C283.08 134.866 282.288 134.088 281.505 134.447C280.911 134.719 280.763 135.502 280.825 136.154C280.976 136.792 280.988 137.455 280.86 138.098C280.503 139.113 279.131 139.466 278.152 139.027C277.2 138.506 276.486 137.634 276.162 136.596C275.219 134.169 275.315 131.484 275.08 128.89C274.845 126.295 274.138 123.52 272.099 121.907C271.489 121.424 270.593 121.076 269.964 121.536C269.729 121.75 269.566 122.033 269.499 122.344C269.432 122.656 269.463 122.981 269.589 123.274C269.852 123.854 270.194 124.393 270.606 124.877C271.303 125.861 271.791 126.977 272.038 128.157C272.286 129.338 272.29 130.557 272.048 131.738L271.631 131.997C270.041 131.583 267.914 132.324 265.803 133.034C267.335 133.491 268.684 134.422 269.658 135.694C272.097 139.128 273.863 142.377 278.689 142.337C279.834 142.327 280.969 142.1 282.114 142.097C283.27 142.026 284.408 142.406 285.29 143.159C286.158 144.011 286.426 145.309 287.169 146.274C288.145 147.542 289.777 148.058 291.268 148.634C292.357 149.055 293.505 149.623 294.006 150.68C294.32 151.548 294.393 152.485 294.216 153.391C294.048 154.993 293.751 156.815 292.396 157.68C291.889 157.945 291.335 158.107 290.766 158.155C290.196 158.203 289.623 158.138 289.079 157.962C287.67 157.618 286.292 156.97 284.845 157.067C282.573 157.219 280.701 159.407 280.678 161.691C280.667 162.848 281.003 164.174 280.239 165.04C279.521 165.854 278.097 165.709 277.354 164.919C277.008 164.499 276.77 164 276.661 163.466C276.551 162.932 276.574 162.38 276.727 161.857C277.043 160.815 277.528 159.833 278.164 158.951C277.408 158.755 276.607 158.827 275.898 159.156C275.189 159.485 274.616 160.05 274.275 160.755C273.77 161.88 273.933 163.178 273.772 164.401C273.611 165.624 272.869 166.983 271.642 167.054C271.24 167.065 270.847 166.935 270.532 166.686C270.216 166.437 269.996 166.086 269.912 165.692C269.899 165.071 269.933 164.45 270.013 163.835C269.971 163.229 269.7 162.662 269.254 162.25C268.809 161.839 268.224 161.614 267.618 161.621C267.992 162.313 268.113 163.115 267.962 163.887C267.811 164.659 267.397 165.355 266.79 165.854C265.856 166.58 264.621 166.742 263.457 166.944C262.293 167.147 261.052 167.468 260.301 168.382C259.049 169.906 260.58 170.592 260.819 171.882C261.111 173.466 259.792 175.805 259.286 177.321C256.958 180.588 254.63 183.855 252.302 187.122C251.783 187.916 251.17 188.645 250.477 189.293C248.179 191.273 244.391 191.077 242.187 188.992C241.119 187.908 240.425 186.508 240.208 184.999C239.991 183.49 240.261 181.951 240.98 180.608C242.342 178.121 245.04 176.58 246.373 174.077C244.155 175.919 241.432 177.043 238.564 177.299C233.49 178.334 228.67 180.362 224.378 183.268C224.176 187.766 222.456 192.062 219.5 195.449C218.968 191.61 217.184 188.056 214.426 185.342C212.633 183.587 210.183 182.173 207.722 182.645C205.262 183.116 203.395 186.264 204.883 188.286C203.636 188.379 202.389 188.472 201.142 188.565C200.583 189.96 200.024 191.355 199.465 192.749C199.365 192.456 199.175 192.203 198.921 192.026C198.667 191.85 198.364 191.759 198.056 191.768C196.888 191.945 196.07 193.035 194.959 193.437C192.866 194.195 190.628 192.095 190.358 189.879C190.087 187.662 191.138 185.523 192.159 183.539C189.904 183.958 187.575 183.708 185.46 182.82C183.344 181.932 181.532 180.445 180.246 178.539C178.959 176.634 178.255 174.394 178.218 172.093C178.182 169.793 178.815 167.531 180.039 165.586C177.613 163.029 174.757 160.92 171.602 159.354C168.683 157.907 165.49 156.914 162.938 154.885C160.387 152.855 158.598 149.331 159.825 146.305C160.692 144.167 162.866 142.717 163.517 140.503C164.459 137.299 161.597 133.985 158.365 133.185C155.132 132.384 151.756 133.368 148.571 134.344C149.061 131.057 145.263 127.975 142.161 129.143C140.861 128.615 139.562 128.087 138.263 127.559C139.769 130.89 143.032 133.01 145.432 135.764C147.832 138.517 149.261 143.002 146.754 145.658C143.161 142.391 139.568 139.124 135.975 135.857C132.217 132.44 128.459 129.022 124.701 125.605C124.88 125.076 125.06 124.547 125.239 124.019C121.683 122.664 117.854 121.543 114.453 119.86Z" fill="#E6E6E6"/>
<path d="M301.072 163.83C301.217 164.039 301.295 164.289 301.293 164.544C301.292 164.799 301.212 165.048 301.065 165.256C300.872 165.421 300.628 165.513 300.375 165.516C300.122 165.519 299.875 165.434 299.678 165.275C299.292 164.945 298.991 164.526 298.799 164.055C298.613 164.417 298.319 164.713 297.959 164.902C297.599 165.091 297.19 165.164 296.787 165.112C295.982 164.99 295.219 164.671 294.566 164.183C294.048 163.879 293.591 163.481 293.218 163.01C293.033 162.772 292.906 162.495 292.847 162.2C292.789 161.904 292.799 161.599 292.879 161.309C293.073 160.864 293.374 160.474 293.755 160.174C294.706 159.293 295.657 158.412 296.607 157.531L296.93 157.434C297.097 157.255 297.299 157.112 297.523 157.013C297.748 156.915 297.989 156.862 298.234 156.86C298.479 156.857 298.722 156.904 298.948 156.998C299.174 157.092 299.379 157.231 299.551 157.406C300.141 158.069 300.144 159.06 300.053 159.944C299.963 160.828 299.823 161.771 300.215 162.568C300.44 163.025 300.822 163.386 301.072 163.83Z" fill="#E6E6E6"/>
<path d="M245.912 193.924C249.607 193.099 252.989 191.23 255.658 188.538C258.328 185.847 260.174 182.444 260.977 178.734C261.327 176.983 261.486 175.069 262.647 173.716C263.772 172.405 265.608 171.932 267.332 171.932C269.055 171.932 270.754 172.33 272.474 172.438C275.482 172.626 278.668 171.829 280.819 169.711C281.837 168.709 282.608 167.435 283.798 166.644C285.396 165.581 287.516 165.582 289.337 166.184C291.366 166.855 292.99 168.691 295.208 168.438C297.516 168.175 300.189 167.357 301.094 170.405C301.354 171.283 301.266 172.245 301.596 173.099C302.104 174.414 303.453 175.156 304.521 176.075C306.67 177.927 307.813 180.739 308.198 183.555C308.583 186.371 308.285 189.231 307.987 192.058C307.826 193.582 307.615 195.223 306.571 196.343C305.116 197.904 302.674 197.843 300.551 197.667C298.084 197.463 295.618 197.259 293.151 197.054C291.822 196.944 290.307 196.898 289.36 197.841C288.793 198.406 288.553 199.224 288.054 199.85C287.607 200.384 286.992 200.749 286.31 200.887C285.629 201.025 284.921 200.927 284.302 200.609C284.803 201.506 285.075 202.512 285.095 203.539C285.116 204.566 284.883 205.582 284.418 206.498C283.954 207.413 283.271 208.2 282.432 208.787C281.592 209.375 280.62 209.746 279.604 209.868L279.413 209.988C280.993 212.701 282.631 215.747 281.976 218.819C281.415 221.453 279.24 223.565 278.885 226.234C278.558 228.684 279.832 231.189 279.269 233.595C278.698 236.031 276.245 237.73 273.757 237.911C271.269 238.093 268.825 236.985 266.898 235.396C264.97 233.807 263.48 231.76 262.012 229.737C261.105 228.488 260.175 227.188 259.864 225.674C259.533 224.064 259.917 222.279 259.136 220.833C258.236 219.166 256.099 218.541 255.02 216.984C253.624 214.967 254.447 212.221 254.138 209.785C253.374 203.756 245.739 199.999 245.912 193.924Z" fill="#E6E6E6"/>
<path d="M247.015 214.505C247.224 215.447 248.102 216.066 248.94 216.54C249.777 217.014 250.697 217.492 251.124 218.356C251.561 219.241 251.361 220.296 251.133 221.257C250.657 223.255 250.097 225.231 249.453 227.184C248.203 224.815 247.113 222.366 246.188 219.853C245.796 218.917 245.554 217.925 245.471 216.914C245.433 216.407 245.501 215.899 245.67 215.42C245.84 214.942 246.108 214.504 246.456 214.136L247.015 214.505Z" fill="#E6E6E6"/>
<path d="M195.636 204.021C196.685 202.806 197.734 201.59 198.783 200.375C199.501 199.545 200.319 198.657 201.406 198.519L201.854 198.805C200.944 200.978 200.034 203.151 199.125 205.324C198.803 206.316 198.236 207.211 197.477 207.924C196.663 208.566 195.342 208.689 194.663 207.905C194.444 207.611 194.306 207.264 194.263 206.9C194.22 206.536 194.273 206.166 194.417 205.829C194.713 205.158 195.126 204.546 195.636 204.021Z" fill="#E6E6E6"/>
<path d="M185.471 206.347C185.074 206.209 184.711 205.989 184.404 205.702C184.097 205.415 183.853 205.067 183.687 204.679C183.362 203.904 183.148 203.086 183.05 202.251C182.87 201.163 182.691 200.075 182.512 198.987L182.746 198.926C182.974 198.817 183.234 198.794 183.477 198.861C183.721 198.929 183.932 199.083 184.071 199.295C184.335 199.727 184.535 200.196 184.664 200.686C184.73 200.93 184.851 201.157 185.017 201.348C185.183 201.54 185.39 201.691 185.623 201.791C186.465 202.046 187.262 201.151 188.141 201.186C188.496 201.231 188.826 201.396 189.076 201.653C189.325 201.91 189.481 202.245 189.517 202.602C189.568 203.324 189.364 204.04 188.941 204.626C188.192 205.793 186.801 206.731 185.471 206.347Z" fill="#E6E6E6"/>
<path d="M179.67 208.41L177.252 202.021C178.232 202.734 178.983 203.719 179.412 204.853C179.842 205.988 179.931 207.224 179.67 208.41V208.41Z" fill="#E6E6E6"/>
<path d="M167.331 203.26L167.82 203.281C168.039 203.714 168.155 204.193 168.16 204.678C168.164 205.164 168.057 205.645 167.847 206.082C167.418 206.955 166.794 207.716 166.023 208.307C164.829 209.296 163.465 210.06 161.999 210.561C159.849 211.19 157.626 211.533 155.387 211.582C154.107 211.666 152.827 211.75 151.548 211.834C150.938 211.875 150.149 211.797 149.98 211.208C149.84 210.722 150.253 210.265 150.638 209.938C154.025 207.079 158.13 205.21 162.504 204.535C164.164 204.282 165.924 204.178 167.331 203.26Z" fill="#E6E6E6"/>
<path d="M153.669 220.214C154.59 219.319 155.51 218.423 156.431 217.528C157.326 216.657 158.667 215.734 159.693 216.445C160.283 216.854 160.465 217.651 160.964 218.166C161.269 218.44 161.636 218.633 162.034 218.728C162.432 218.823 162.847 218.817 163.241 218.71C164.027 218.488 164.771 218.135 165.439 217.665L167.724 216.243C168.512 215.752 169.3 215.262 170.088 214.771L171.867 216.505C171.789 215.652 172.923 215.097 173.709 215.435C174.082 215.645 174.403 215.936 174.648 216.288C174.894 216.64 175.057 217.043 175.125 217.466C175.256 218.313 175.484 219.142 175.805 219.937C176.708 221.671 178.901 222.185 180.83 222.475C182.759 222.766 184.945 223.175 185.977 224.835C186.837 226.218 186.579 227.994 186.292 229.598L185.205 235.668C185.154 236.403 184.86 237.1 184.369 237.649C183.414 238.495 181.935 237.981 180.769 237.465C178.332 236.289 175.718 235.529 173.032 235.215C170.323 234.911 167.596 235.612 165.366 237.185C163.984 238.241 162.929 239.703 161.465 240.641C160.456 241.25 159.322 241.62 158.149 241.722C156.976 241.825 155.795 241.658 154.696 241.234C152.493 240.354 150.671 238.723 149.548 236.628C148.551 234.781 148.051 232.705 148.096 230.605C148.142 228.505 148.732 226.453 149.808 224.651C150.906 223.017 152.204 221.527 153.669 220.214Z" fill="#E6E6E6"/>
<path d="M156.384 244.941C156.604 245.21 156.734 245.543 156.752 245.891C156.771 246.239 156.678 246.584 156.487 246.876C156.086 247.452 155.474 247.847 154.785 247.975C154.102 248.097 153.407 248.129 152.716 248.07L152.695 247.552C152.879 246.643 153.297 245.798 153.907 245.102C154.573 244.466 155.752 244.27 156.384 244.941Z" fill="#E6E6E6"/>
<path d="M132.68 245.495L133.01 245.374C133.796 246.562 134.581 247.75 135.366 248.937C135.789 249.576 136.23 250.344 135.972 251.066C135.667 251.92 134.539 252.17 133.663 251.945C132.994 251.762 132.391 251.393 131.924 250.879C131.458 250.365 131.147 249.728 131.028 249.043C130.931 248.355 131.036 247.653 131.329 247.023C131.623 246.393 132.092 245.863 132.68 245.495V245.495Z" fill="#E6E6E6"/>
<path d="M126.693 241.726L128.861 239.997C128.89 240.799 128.919 241.601 128.948 242.404L129.029 242.405C128.529 242.845 128.057 243.316 127.616 243.815C127.108 244.248 126.257 244.446 125.823 243.939C125.693 243.757 125.619 243.541 125.611 243.318C125.603 243.095 125.66 242.874 125.776 242.683C126.015 242.306 126.326 241.98 126.693 241.726Z" fill="#E6E6E6"/>
<path d="M165.866 166.488C166.776 166.459 167.783 166.404 168.488 166.981C168.72 167.189 168.924 167.427 169.093 167.689L169.342 168.038C169.714 168.527 170.039 169.05 170.311 169.601C170.453 169.859 170.538 170.145 170.561 170.439C170.584 170.733 170.544 171.029 170.443 171.306C170.384 171.438 170.298 171.556 170.189 171.651C170.08 171.746 169.952 171.817 169.813 171.856C169.675 171.896 169.529 171.905 169.386 171.882C169.244 171.86 169.108 171.806 168.989 171.725C168.6 171.363 168.69 170.708 168.396 170.265C168.267 170.098 168.101 169.964 167.911 169.873C167.721 169.782 167.512 169.736 167.302 169.74C166.882 169.75 166.463 169.798 166.052 169.882C164.911 170.038 163.749 169.864 162.704 169.38C161.659 168.896 160.774 168.122 160.153 167.149C159.532 166.176 159.202 165.046 159.201 163.891C159.2 162.736 159.529 161.605 160.148 160.631L160.222 160.407C160.852 160.383 161.47 160.581 161.969 160.967C162.469 161.353 162.817 161.903 162.954 162.52C163.158 163.584 162.726 164.819 163.369 165.689C163.911 166.423 164.957 166.516 165.866 166.488Z" fill="#E6E6E6"/>
<path d="M157.722 155.212L157.86 155.2C158.674 155.349 159.455 155.641 160.168 156.063C160.402 156.172 160.588 156.362 160.693 156.598C160.724 156.723 160.724 156.854 160.692 156.979C160.66 157.104 160.597 157.219 160.51 157.314C160.333 157.501 160.126 157.657 159.898 157.776C159.558 158.004 159.182 158.172 158.786 158.275C158.587 158.324 158.38 158.323 158.182 158.272C157.983 158.22 157.801 158.12 157.651 157.981C157.51 157.787 157.413 157.564 157.367 157.328C157.321 157.093 157.327 156.85 157.385 156.617C157.45 156.139 157.563 155.668 157.722 155.212Z" fill="#E6E6E6"/>
<path d="M171.746 166.759C171.528 166.409 171.374 166.024 171.289 165.621C171.204 165.307 171.119 164.994 171.035 164.681L171.942 164.128C172.375 164.355 172.774 164.64 173.129 164.978C173.305 165.147 173.445 165.352 173.538 165.578C173.632 165.805 173.678 166.048 173.674 166.294C173.661 166.539 173.566 166.772 173.405 166.956C173.243 167.14 173.024 167.264 172.783 167.307C172.578 167.314 172.374 167.266 172.192 167.17C172.011 167.074 171.857 166.932 171.746 166.759V166.759Z" fill="#E6E6E6"/>
<path d="M270.55 82.1456C270.909 82.3699 270.807 82.9121 270.662 83.3102C270.495 83.7672 270.328 84.2242 270.161 84.6812L269.927 83.794C269.722 83.45 269.631 83.0492 269.668 82.6499C269.749 82.26 270.213 81.935 270.55 82.1456Z" fill="#E6E6E6"/>
<path d="M44.1046 164.471H195.802C199.458 164.467 202.963 163.008 205.549 160.414C208.134 157.82 209.588 154.304 209.592 150.636V41.7594C209.588 38.0914 208.134 34.5748 205.549 31.9811C202.963 29.3874 199.458 27.9285 195.802 27.9243H44.1046C40.4484 27.9285 36.9431 29.3874 34.3577 31.9811C31.7724 34.5748 30.3181 38.0914 30.314 41.7594V150.636C30.3181 154.304 31.7723 157.82 34.3577 160.414C36.9431 163.008 40.4484 164.467 44.1046 164.471V164.471Z" fill="white"/>
<path d="M44.1046 164.471H195.802C199.458 164.467 202.963 163.008 205.549 160.414C208.134 157.82 209.588 154.304 209.592 150.636V41.7594C209.588 38.0914 208.134 34.5748 205.549 31.9811C202.963 29.3874 199.458 27.9285 195.802 27.9243H44.1046C40.4484 27.9285 36.9431 29.3874 34.3577 31.9811C31.7724 34.5748 30.3181 38.0914 30.314 41.7594V150.636C30.3181 154.304 31.7723 157.82 34.3577 160.414C36.9431 163.008 40.4484 164.467 44.1046 164.471V164.471ZM195.802 29.1274C199.14 29.1311 202.341 30.4632 204.701 32.8314C207.062 35.1995 208.389 38.4103 208.393 41.7594V150.636C208.389 153.985 207.062 157.195 204.701 159.564C202.34 161.932 199.14 163.264 195.802 163.268H44.1046C40.7663 163.264 37.5658 161.932 35.2053 159.564C32.8448 157.195 31.5169 153.985 31.5131 150.636V41.7594C31.5169 38.4103 32.8447 35.1995 35.2052 32.8314C37.5658 30.4632 40.7663 29.1311 44.1046 29.1274H195.802Z" fill="#3F3D56"/>
<path d="M154.529 44.5018H178.513C179.149 44.5018 179.759 44.2483 180.209 43.7971C180.658 43.3459 180.911 42.7339 180.911 42.0957C180.911 41.4576 180.658 40.8456 180.209 40.3944C179.759 39.9431 179.149 39.6896 178.513 39.6896H154.529C153.893 39.6896 153.283 39.9431 152.833 40.3944C152.383 40.8456 152.131 41.4576 152.131 42.0957C152.131 42.7339 152.383 43.3459 152.833 43.7971C153.283 44.2483 153.893 44.5018 154.529 44.5018Z" fill="#CCCCCC"/>
<path d="M102.364 98.6392H178.513C179.149 98.6392 179.759 98.3857 180.209 97.9344C180.658 97.4832 180.911 96.8712 180.911 96.2331C180.911 95.5949 180.658 94.9829 180.209 94.5317C179.759 94.0805 179.149 93.827 178.513 93.827H102.364C101.728 93.827 101.118 94.0805 100.669 94.5317C100.219 94.9829 99.966 95.5949 99.966 96.2331C99.966 96.8712 100.219 97.4832 100.669 97.9344C101.118 98.3857 101.728 98.6392 102.364 98.6392Z" fill="#CCCCCC"/>
<path d="M165.024 83.4493C156.143 83.4493 148.944 76.2267 148.944 67.3171C148.944 58.4075 156.143 51.1848 165.024 51.1848C173.905 51.1848 181.105 58.4075 181.105 67.3171C181.105 76.2267 173.905 83.4493 165.024 83.4493Z" fill="#6F63FF"/>
<path d="M177.313 144.588H180.911V145.791H177.313V144.588Z" fill="#3F3D56"/>
<path d="M71.6841 145.791H79.229V144.588H71.6841V145.791ZM86.774 145.791H94.319V144.588H86.774V145.791ZM101.864 145.791H109.409V144.588H101.864V145.791ZM116.954 145.791H124.499V144.588H116.954L116.954 145.791ZM132.044 145.791H139.589V144.588H132.044V145.791ZM147.134 145.791H154.678V144.588H147.133L147.134 145.791ZM162.223 145.791H169.768V144.588H162.223V145.791Z" fill="#3F3D56"/>
<path d="M60.5415 144.588H64.139V145.791H60.5415V144.588Z" fill="#3F3D56"/>
<path d="M119.849 123.302H122.847V143.754H119.849V123.302Z" fill="#6F63FF"/>
<path d="M89.2701 123.302H92.268V143.754H89.2701V123.302Z" fill="#6F63FF"/>
<path d="M74.2802 134.73H77.2782V143.753H74.2802V134.73Z" fill="#6F63FF"/>
<path d="M104.859 114.279H107.857V143.754H104.859V114.279Z" fill="#6F63FF"/>
<path d="M395.063 164.205C393.076 164.205 391.465 162.589 391.465 160.596C391.465 158.603 393.076 156.987 395.063 156.987C397.049 156.987 398.66 158.603 398.66 160.596C398.66 162.589 397.049 164.205 395.063 164.205Z" fill="#6F63FF"/>
<path d="M385.469 146.761C383.482 146.761 381.872 145.145 381.872 143.152C381.872 141.159 383.482 139.543 385.469 139.543C387.456 139.543 389.067 141.159 389.067 143.152C389.067 145.145 387.456 146.761 385.469 146.761Z" fill="#6F63FF"/>
<path d="M279.941 132.926C277.954 132.926 276.343 131.31 276.343 129.317C276.343 127.324 277.954 125.708 279.941 125.708C281.928 125.708 283.538 127.324 283.538 129.317C283.538 131.31 281.928 132.926 279.941 132.926Z" fill="#6F63FF"/>
<path d="M362.52 387.316L357.094 387.315L354.513 366.318L362.521 366.318L362.52 387.316Z" fill="#FFB6B6"/>
<path d="M362.711 392.995L346.025 392.994V392.782C346.025 391.054 346.709 389.397 347.927 388.175C349.145 386.953 350.797 386.267 352.52 386.267H352.52L355.568 383.947L361.255 386.267L362.711 386.267L362.711 392.995Z" fill="#2F2E41"/>
<path d="M321.748 387.316L316.321 387.315L313.74 366.318L321.749 366.318L321.748 387.316Z" fill="#FFB6B6"/>
<path d="M321.939 392.995L305.252 392.994V392.782C305.253 391.054 305.937 389.397 307.155 388.175C308.373 386.953 310.025 386.267 311.747 386.267H311.748L314.796 383.947L320.482 386.267L321.939 386.267L321.939 392.995Z" fill="#2F2E41"/>
<path d="M362.731 216.506L353.101 215.122C349.844 220.586 348.687 235.128 348.687 235.128L339.263 257.6C338.638 258.025 338.137 258.608 337.809 259.29C337.48 259.971 337.337 260.727 337.393 261.482C337.448 262.237 337.701 262.964 338.126 263.59C338.55 264.215 339.132 264.718 339.812 265.046C340.491 265.375 341.245 265.518 341.998 265.461C342.75 265.404 343.474 265.15 344.097 264.723C344.721 264.296 345.221 263.712 345.547 263.03C345.874 262.348 346.016 261.591 345.958 260.836L361.432 234.68L362.731 216.506Z" fill="#FFB6B6"/>
<path d="M357.512 189.685C359.002 189.917 360.424 190.475 361.675 191.321C362.926 192.166 363.975 193.277 364.75 194.576C365.524 195.875 366.003 197.328 366.154 198.834C366.304 200.34 366.122 201.86 365.62 203.287L363.576 209.098C363.576 209.098 366.151 226.595 361.908 231.533L348.89 230.351C348.89 230.351 351.27 221.524 349.443 217.253C348.324 214.637 348.386 205.603 349.489 198.254C350.331 192.643 351.922 188.817 357.512 189.685Z" fill="#3F3D56"/>
<path d="M312.618 242.404C312.618 242.404 302.584 252.221 304.727 254.489C306.87 256.756 311.771 259.932 307.222 260.449C302.673 260.967 300.786 262.088 304.727 263.031C308.669 263.974 308.06 266.396 308.06 266.396C308.06 266.396 302.126 294.736 306.623 313.384C306.623 313.384 309.125 364.316 310.696 368.282C312.266 372.249 312.866 369.843 312.266 372.249C311.667 374.655 310.468 370.444 311.667 374.655C312.321 376.854 312.839 379.092 313.218 381.356L324.947 379.552C324.947 379.552 326.836 373.58 324.947 372.012C323.059 370.444 321.365 371.411 323.411 367.92C325.457 364.429 326.057 369.241 325.457 364.429C324.858 359.617 327.361 333.59 323.411 319.836L330.71 281.24L342.298 321.204C342.298 321.204 348.445 370.011 350.442 371.732C352.439 373.452 355.437 370.444 352.439 373.452C349.441 376.46 349.493 375.942 349.441 376.46C348.883 381.977 366.049 375.942 366.049 375.942C365.953 374.54 365.953 373.134 366.049 371.732C366.23 370.444 364.069 370.032 366.049 368.735C368.029 367.437 365.083 368.724 365.083 368.724C365.083 368.724 360.656 332.717 357.288 321.805L353.391 268.668C353.391 268.668 353.143 269.728 353.391 267.152C353.638 264.576 355.437 266.38 353.638 264.576C351.839 262.771 350.64 261.852 351.839 260.507C353.039 259.162 356.347 256.441 354.393 254.794C352.439 253.147 348.594 242.404 348.594 242.404L311.119 242.704" fill="#2F2E41"/>
<path d="M326.708 182.748L333.465 175.115L344.142 176.306L350.978 185.903C354.617 186.742 357.796 188.948 359.863 192.068C361.929 195.187 362.725 198.983 362.087 202.673C359.435 217.997 350.42 232.859 353.397 240.42C357.915 251.897 358.191 256.578 347.375 254.969C336.559 253.36 300.322 249.65 307.348 242.602C314.373 235.554 315.916 223.777 315.916 223.777L316.198 196.832C315.899 195.207 315.939 193.537 316.315 191.928C316.691 190.319 317.394 188.806 318.382 187.483C319.369 186.16 320.618 185.057 322.051 184.242C323.484 183.427 325.07 182.918 326.708 182.748V182.748Z" fill="#3F3D56"/>
<path d="M328.554 212.296L318.924 210.912C315.667 216.375 314.51 230.917 314.51 230.917L305.086 253.39C304.462 253.815 303.96 254.398 303.632 255.079C303.304 255.761 303.16 256.517 303.216 257.272C303.271 258.027 303.524 258.753 303.949 259.379C304.374 260.005 304.955 260.507 305.635 260.836C306.314 261.164 307.068 261.307 307.821 261.251C308.573 261.194 309.297 260.939 309.921 260.512C310.544 260.086 311.044 259.502 311.37 258.819C311.697 258.137 311.839 257.38 311.781 256.626L327.255 230.469L328.554 212.296Z" fill="#FFB6B6"/>
<path d="M323.335 185.475C324.825 185.706 326.247 186.264 327.498 187.11C328.749 187.955 329.799 189.067 330.573 190.365C331.347 191.664 331.826 193.118 331.977 194.623C332.127 196.129 331.945 197.649 331.443 199.076L329.4 204.887C329.4 204.887 331.974 222.384 327.731 227.323L314.714 226.14C314.714 226.14 317.094 217.313 315.266 213.042C314.147 210.426 314.21 201.392 315.312 194.043C316.154 188.432 317.745 184.606 323.335 185.475Z" fill="#3F3D56"/>
<path d="M341.74 174.458C334.613 174.458 328.835 168.662 328.835 161.511C328.835 154.361 334.613 148.565 341.74 148.565C348.867 148.565 354.645 154.361 354.645 161.511C354.645 168.662 348.867 174.458 341.74 174.458Z" fill="#FFB6B6"/>
<path d="M344.113 174.185C340.519 173.282 340.397 172.251 336.803 171.348C335.658 171.06 334.332 170.607 333.993 169.473C333.912 169.059 333.929 168.631 334.041 168.224C334.153 167.817 334.358 167.441 334.639 167.127C335.206 166.505 335.736 165.851 336.228 165.168C336.554 164.619 336.742 164 336.776 163.362C336.809 162.724 336.688 162.088 336.421 161.508C336.155 160.928 335.752 160.422 335.247 160.034C334.742 159.645 334.15 159.386 333.523 159.278C332.411 159.087 331.264 159.383 330.145 159.24C328.611 159.044 326.354 153.331 327.337 152.134C328.295 150.968 329.867 150.272 330.395 148.857C330.74 147.932 330.552 146.897 330.705 145.921C330.933 144.474 333.852 148.481 333.464 147.069C332.511 143.604 348.636 143.059 350.315 147.503C350.942 149.164 352.64 149.428 353.947 150.627C354.803 151.413 356.851 153.928 357.148 155.283C357.394 156.654 357.347 158.061 357.009 159.412C355.67 165.743 353.457 171.355 347.565 173.992" fill="#2F2E41"/>
<path d="M477.993 394.92L207.682 395.193C207.574 395.193 207.466 395.166 207.365 395.113C207.265 395.06 207.174 394.982 207.097 394.884C207.02 394.786 206.959 394.67 206.917 394.541C206.875 394.413 206.854 394.275 206.854 394.136C206.854 393.997 206.875 393.86 206.917 393.731C206.959 393.603 207.02 393.487 207.097 393.388C207.174 393.29 207.265 393.213 207.365 393.16C207.466 393.107 207.574 393.08 207.682 393.08L477.993 392.808C478.101 392.807 478.209 392.834 478.309 392.887C478.41 392.94 478.501 393.018 478.578 393.116C478.655 393.214 478.716 393.331 478.758 393.459C478.799 393.587 478.821 393.725 478.821 393.864C478.821 394.003 478.799 394.14 478.758 394.269C478.716 394.397 478.655 394.513 478.578 394.612C478.501 394.71 478.41 394.787 478.309 394.84C478.209 394.893 478.101 394.92 477.993 394.92Z" fill="#CACACA"/>
</g>
<defs>
<clipPath id="clip0_447_1140">
<rect width="433" height="378" fill="white" transform="matrix(-1 0 0 1 449 16)"/>
</clipPath>
</defs>
</svg>
