<svg width="536" height="400" viewBox="0 0 536 400" fill="none" xmlns="http://www.w3.org/2000/svg">
<path d="M484.111 13.304H0.206337V243.574H484.111V13.304Z" fill="#E6E6E6"/>
<path d="M470.274 33.05H14.0438V225.171H470.274V33.05Z" fill="white"/>
<path d="M483.905 0H0V20.6158H483.905V0Z" fill="#3F3D56"/>
<path d="M15.2769 15.9436C17.3813 15.9436 19.0872 14.2329 19.0872 12.1226C19.0872 10.0123 17.3813 8.30151 15.2769 8.30151C13.1726 8.30151 11.4666 10.0123 11.4666 12.1226C11.4666 14.2329 13.1726 15.9436 15.2769 15.9436Z" fill="white"/>
<path d="M29.7396 15.9436C31.8439 15.9436 33.5499 14.2329 33.5499 12.1226C33.5499 10.0123 31.8439 8.30151 29.7396 8.30151C27.6352 8.30151 25.9293 10.0123 25.9293 12.1226C25.9293 14.2329 27.6352 15.9436 29.7396 15.9436Z" fill="white"/>
<path d="M44.2029 15.9436C46.3072 15.9436 48.0132 14.2329 48.0132 12.1226C48.0132 10.0123 46.3072 8.30151 44.2029 8.30151C42.0985 8.30151 40.3926 10.0123 40.3926 12.1226C40.3926 14.2329 42.0985 15.9436 44.2029 15.9436Z" fill="white"/>
<path d="M341.192 62.2595H276.937V67.1027H341.192V62.2595Z" fill="#E6E6E6"/>
<path d="M376.16 76.4775H276.937V81.3207H376.16V76.4775Z" fill="#FFCF00"/>
<path d="M358.834 90.0181H277.969V94.8612H358.834V90.0181Z" fill="#E6E6E6"/>
<path d="M324.145 104.875H276.937V109.718H324.145V104.875Z" fill="#E6E6E6"/>
<path d="M348.186 119.388H276.937V124.231H348.186V119.388Z" fill="#FFCF00"/>
<path d="M255.519 60.7361H247.651V68.6262H255.519V60.7361Z" fill="#E6E6E6"/>
<path d="M255.519 74.9541H247.651V82.8442H255.519V74.9541Z" fill="#FFCF00"/>
<path d="M255.519 88.4946H247.651V96.3848H255.519V88.4946Z" fill="#E6E6E6"/>
<path d="M255.519 103.352H247.651V111.242H255.519V103.352Z" fill="#E6E6E6"/>
<path d="M255.519 117.864H247.651V125.754H255.519V117.864Z" fill="#FFCF00"/>
<path d="M341.192 133.991H276.937V138.834H341.192V133.991Z" fill="#E6E6E6"/>
<path d="M376.16 148.208H276.937V153.052H376.16V148.208Z" fill="#FFCF00"/>
<path d="M358.834 161.749H277.969V166.592H358.834V161.749Z" fill="#E6E6E6"/>
<path d="M324.145 176.606H276.937V181.45H324.145V176.606Z" fill="#E6E6E6"/>
<path d="M348.186 191.119H276.937V195.962H348.186V191.119Z" fill="#E6E6E6"/>
<path d="M255.519 132.467H247.651V140.357H255.519V132.467Z" fill="#E6E6E6"/>
<path d="M255.519 146.685H247.651V154.575H255.519V146.685Z" fill="#FFCF00"/>
<path d="M255.519 160.226H247.651V168.116H255.519V160.226Z" fill="#E6E6E6"/>
<path d="M255.519 175.083H247.651V182.973H255.519V175.083Z" fill="#E6E6E6"/>
<path d="M255.519 189.595H247.651V197.485H255.519V189.595Z" fill="#E6E6E6"/>
<path d="M137.924 171.98H73.6696V176.824H137.924V171.98Z" fill="#3F3D56"/>
<path d="M145.937 184.565H65.0724V189.408H145.937V184.565Z" fill="#3F3D56"/>
<path d="M147.559 110.886C147.556 118.165 145.671 125.319 142.088 131.649C138.504 137.98 133.345 143.27 127.114 147.003C120.882 150.736 113.792 152.784 106.535 152.949C99.2788 153.113 92.1036 151.387 85.7109 147.939L85.7027 147.931C79.1727 144.403 73.692 139.202 69.819 132.859C65.9461 126.515 63.8192 119.255 63.6553 111.819C63.4914 104.382 65.2962 97.0352 68.8858 90.5261C72.4754 84.017 77.7216 78.5784 84.0897 74.7647C90.4578 70.9509 97.7203 68.8982 105.137 68.8158C112.554 68.7334 119.86 70.6242 126.311 74.2954C132.762 77.9667 138.127 83.2873 141.859 89.7151C145.592 96.1429 147.559 103.448 147.559 110.886Z" fill="#3F3D56"/>
<path d="M105.818 108.844C112.117 108.844 117.223 103.723 117.223 97.4066C117.223 91.0899 112.117 85.9692 105.818 85.9692C99.5195 85.9692 94.4133 91.0899 94.4133 97.4066C94.4133 103.723 99.5195 108.844 105.818 108.844Z" fill="white"/>
<path d="M125.293 132.476C112.542 136.964 98.6398 136.91 85.9247 132.323L85.9165 132.318L94.4133 115.498H117.223L125.293 132.476Z" fill="white"/>
<path d="M451.233 391.344H442.801L438.789 358.728L451.235 358.729L451.233 391.344Z" fill="#FFB7B7"/>
<path d="M453.383 399.541L426.195 399.54V399.195C426.195 396.381 427.31 393.681 429.295 391.691C431.279 389.701 433.971 388.583 436.777 388.583H436.778L453.384 388.583L453.383 399.541Z" fill="#2F2E41"/>
<path d="M471.827 391.344H480.26L484.271 358.728L471.826 358.729L471.827 391.344Z" fill="#FFB7B7"/>
<path d="M469.677 388.583L486.282 388.583H486.283C489.09 388.583 491.781 389.701 493.766 391.691C495.75 393.681 496.865 396.38 496.866 399.195V399.54L469.677 399.541L469.677 388.583Z" fill="#2F2E41"/>
<path d="M449.359 136.464C452.981 129.154 450.008 120.284 442.718 116.652C435.429 113.02 426.584 116.002 422.962 123.312C419.34 130.622 422.314 139.492 429.603 143.124C436.892 146.756 445.737 143.774 449.359 136.464Z" fill="#FFB7B7"/>
<path d="M425.308 231.561C425.308 231.561 420.654 251.007 422.981 260.342C425.308 269.676 432.289 333.461 432.289 333.461L436.943 384.022L455.559 385.578L453.232 326.46L455.559 275.121L468.746 324.905V384.199L488.489 384.977L488.914 307.792C488.914 307.792 490.465 247.118 480.381 239.34C470.297 231.561 468.746 230.005 468.746 230.005L425.308 231.561Z" fill="#2F2E41"/>
<path d="M453.411 145.996L471.073 155.33L473.4 236.228C473.4 236.228 463.316 230.005 447.803 237.784C432.289 245.562 422.205 240.117 422.205 240.117L431.513 205.113L427.635 158.441L433.182 153.392L453.411 145.996Z" fill="#CBCBCB"/>
<path d="M433.184 151.92L429.962 154.552C429.962 154.552 409.795 164.664 409.019 171.665L422.981 209.781C422.981 209.781 426.86 218.337 423.757 221.449C420.654 224.56 417.551 232.339 418.327 236.228C419.103 240.117 413.673 256.452 419.878 256.452C426.084 256.452 440.822 219.115 440.046 204.335C439.27 189.556 438.733 150.844 433.184 151.92Z" fill="#2F2E41"/>
<path d="M446.743 146.872L453.848 145.687C453.848 145.687 480.221 152.687 484.099 164.355L473.24 191.581C473.24 191.581 480.996 241.364 478.669 241.364H476.342C476.342 241.364 482.548 246.031 478.669 247.587C474.791 249.143 465.483 261.588 463.156 256.143C460.829 250.698 446.867 186.135 448.418 172.134C449.969 158.132 445.365 148.339 446.743 146.872Z" fill="#2F2E41"/>
<path d="M449.826 115.417L450.517 114.023L447.043 112.293C447.043 112.293 443.212 106.041 436.278 107.798C429.345 109.555 426.225 110.606 426.225 110.606L422.761 112.354L424.5 114.089L421.38 115.141L423.464 116.179L421.04 117.577L422.345 124.741C422.345 124.741 424.513 119.307 428.681 121.384C432.849 123.461 440.473 120.31 440.473 120.31L447.096 133.165C447.096 133.165 448.462 128.659 450.899 129.86C450.899 129.86 457.122 119.92 449.826 115.417Z" fill="#2F2E41"/>
<path d="M471.401 251.912C471.018 250.974 470.844 249.962 470.893 248.95C470.942 247.937 471.211 246.947 471.682 246.05C472.154 245.153 472.815 244.37 473.621 243.758C474.426 243.145 475.356 242.716 476.345 242.503L479.33 218.038L489.059 226.336L484.733 248.296C484.98 249.985 484.601 251.706 483.668 253.134C482.735 254.562 481.312 255.596 479.668 256.042C478.025 256.488 476.276 256.313 474.752 255.552C473.229 254.791 472.036 253.496 471.401 251.912Z" fill="#FFB7B7"/>
<path d="M429.789 250.228C430.071 249.255 430.136 248.231 429.981 247.229C429.826 246.227 429.453 245.271 428.89 244.429C428.326 243.588 427.585 242.88 426.72 242.356C425.854 241.832 424.884 241.505 423.879 241.398L418.323 217.389L409.526 226.674L416.151 248.05C416.083 249.756 416.641 251.427 417.72 252.748C418.799 254.068 420.324 254.946 422.005 255.214C423.686 255.483 425.407 255.123 426.842 254.205C428.276 253.286 429.325 251.871 429.789 250.228Z" fill="#FFB7B7"/>
<path d="M471.776 158.016C471.776 158.016 481.86 154.127 484.963 165.795C488.065 177.463 491.944 200.799 491.944 200.799C492.136 213.775 491.449 213.775 491.944 226.468L489.617 238.136L476.43 236.581L477.005 206.878L470.225 176.685L471.776 158.016Z" fill="#2F2E41"/>
<path d="M416 166.998L411.219 167.511C411.219 167.511 406.692 170.887 406.692 178.666C406.692 186.445 405.916 209.781 405.916 209.781C405.916 209.781 405.476 210.327 409.019 230.005C410.746 239.597 413.73 244.123 413.73 244.123L423.359 235.157L422.205 212.114L425.308 199.668L416 166.998Z" fill="#2F2E41"/>
<path d="M535.312 400H381.25C381.067 400 380.892 399.927 380.763 399.798C380.634 399.669 380.562 399.493 380.562 399.31C380.562 399.127 380.634 398.952 380.763 398.823C380.892 398.693 381.067 398.62 381.25 398.62H535.312C535.495 398.62 535.67 398.693 535.799 398.823C535.928 398.952 536 399.127 536 399.31C536 399.493 535.928 399.669 535.799 399.798C535.67 399.927 535.495 400 535.312 400Z" fill="#CBCBCB"/>
<path d="M214.807 400H132.961C132.779 400 132.604 399.927 132.475 399.798C132.346 399.669 132.274 399.493 132.274 399.31C132.274 399.127 132.346 398.952 132.475 398.823C132.604 398.693 132.779 398.62 132.961 398.62H214.807C214.989 398.62 215.164 398.693 215.293 398.823C215.422 398.952 215.495 399.127 215.495 399.31C215.495 399.493 215.422 399.669 215.293 399.798C215.164 399.927 214.989 400 214.807 400Z" fill="#CBCBCB"/>
<path d="M178.414 370.661C164.994 380.693 161.191 398.343 161.191 398.343C161.191 398.343 179.145 399.729 192.564 389.697C205.983 379.666 209.786 362.016 209.786 362.016C209.786 362.016 191.833 360.63 178.414 370.661Z" fill="url(#paint0_linear_1_35)"/>
<path d="M184.003 375.371C177.554 390.86 161.402 398.841 161.402 398.841C161.402 398.841 155.706 381.711 162.155 366.222C168.605 350.734 184.757 342.752 184.757 342.752C184.757 342.752 190.453 359.883 184.003 375.371Z" fill="url(#paint1_linear_1_35)"/>
<defs>
<linearGradient id="paint0_linear_1_35" x1="185.489" y1="361.951" x2="185.489" y2="398.408" gradientUnits="userSpaceOnUse">
<stop stop-color="#C8EAF9"/>
<stop offset="1" stop-color="#1877E1"/>
</linearGradient>
<linearGradient id="paint1_linear_1_35" x1="173.079" y1="342.752" x2="173.079" y2="398.841" gradientUnits="userSpaceOnUse">
<stop stop-color="#C8EAF9"/>
<stop offset="1" stop-color="#1877E1"/>
</linearGradient>
</defs>
</svg>
