<svg width="563" height="397" viewBox="0 0 563 397" fill="none" xmlns="http://www.w3.org/2000/svg">
<path fill-rule="evenodd" clip-rule="evenodd" d="M463.2 37.8777C425.346 16.4283 409.128 58.5657 365.73 61.6806C324.615 64.6317 319.68 4.87199 280.554 17.8463C241.047 30.9468 261.813 75.2763 250.816 115.42C239.838 155.491 193.995 167.807 211.936 205.28C228.893 240.698 277.061 247.973 309.617 269.93C342.481 292.094 372.323 355.927 396.681 342.386C421.038 328.844 404.807 297.115 439.638 265.727C470.543 237.878 520.328 260.307 542.535 225.129C561.866 194.508 500.687 167.455 490.885 132.597C479.477 92.0272 499.865 58.6531 463.2 37.8777Z" fill="#D5FFEC"/>
<g clip-path="url(#clip0_409_999)">
<path d="M489.371 380.004H16.6294C16.4628 380.004 16.3032 379.937 16.1855 379.819C16.0679 379.702 16.0018 379.542 16.0018 379.376C16.0018 379.209 16.0679 379.05 16.1855 378.932C16.3032 378.814 16.4628 378.748 16.6294 378.747H489.371C489.537 378.748 489.697 378.814 489.814 378.932C489.932 379.05 489.998 379.209 489.998 379.376C489.998 379.542 489.932 379.702 489.814 379.819C489.697 379.937 489.537 380.004 489.371 380.004Z" fill="#3F3D56"/>
<path d="M164.2 166.381C166.088 166.381 167.619 164.853 167.619 162.967C167.619 161.082 166.088 159.554 164.2 159.554C162.312 159.554 160.782 161.082 160.782 162.967C160.782 164.853 162.312 166.381 164.2 166.381Z" fill="#ACDEE3"/>
<path d="M150.576 166.381C152.464 166.381 153.994 164.853 153.994 162.967C153.994 161.082 152.464 159.554 150.576 159.554C148.688 159.554 147.157 161.082 147.157 162.967C147.157 164.853 148.688 166.381 150.576 166.381Z" fill="#ACDEE3"/>
<path d="M136.952 166.381C138.84 166.381 140.37 164.853 140.37 162.967C140.37 161.082 138.84 159.554 136.952 159.554C135.064 159.554 133.533 161.082 133.533 162.967C133.533 164.853 135.064 166.381 136.952 166.381Z" fill="#ACDEE3"/>
<path d="M123.327 166.381C125.215 166.381 126.746 164.853 126.746 162.967C126.746 161.082 125.215 159.554 123.327 159.554C121.439 159.554 119.909 161.082 119.909 162.967C119.909 164.853 121.439 166.381 123.327 166.381Z" fill="#ACDEE3"/>
<path d="M164.2 180.632C166.088 180.632 167.619 179.104 167.619 177.219C167.619 175.334 166.088 173.805 164.2 173.805C162.312 173.805 160.782 175.334 160.782 177.219C160.782 179.104 162.312 180.632 164.2 180.632Z" fill="#ACDEE3"/>
<path d="M150.576 180.632C152.464 180.632 153.994 179.104 153.994 177.219C153.994 175.334 152.464 173.805 150.576 173.805C148.688 173.805 147.157 175.334 147.157 177.219C147.157 179.104 148.688 180.632 150.576 180.632Z" fill="#ACDEE3"/>
<path d="M136.952 180.632C138.84 180.632 140.37 179.104 140.37 177.219C140.37 175.334 138.84 173.805 136.952 173.805C135.064 173.805 133.533 175.334 133.533 177.219C133.533 179.104 135.064 180.632 136.952 180.632Z" fill="#ACDEE3"/>
<path d="M123.327 180.632C125.215 180.632 126.746 179.104 126.746 177.219C126.746 175.334 125.215 173.805 123.327 173.805C121.439 173.805 119.909 175.334 119.909 177.219C119.909 179.104 121.439 180.632 123.327 180.632Z" fill="#ACDEE3"/>
<path d="M164.2 194.884C166.088 194.884 167.619 193.355 167.619 191.47C167.619 189.585 166.088 188.057 164.2 188.057C162.312 188.057 160.782 189.585 160.782 191.47C160.782 193.355 162.312 194.884 164.2 194.884Z" fill="#ACDEE3"/>
<path d="M150.576 194.884C152.464 194.884 153.994 193.355 153.994 191.47C153.994 189.585 152.464 188.057 150.576 188.057C148.688 188.057 147.157 189.585 147.157 191.47C147.157 193.355 148.688 194.884 150.576 194.884Z" fill="#ACDEE3"/>
<path d="M136.952 194.884C138.84 194.884 140.37 193.355 140.37 191.47C140.37 189.585 138.84 188.057 136.952 188.057C135.064 188.057 133.533 189.585 133.533 191.47C133.533 193.355 135.064 194.884 136.952 194.884Z" fill="#ACDEE3"/>
<path d="M123.327 194.884C125.215 194.884 126.746 193.355 126.746 191.47C126.746 189.585 125.215 188.057 123.327 188.057C121.439 188.057 119.909 189.585 119.909 191.47C119.909 193.355 121.439 194.884 123.327 194.884Z" fill="#ACDEE3"/>
<path d="M164.2 209.135C166.088 209.135 167.619 207.607 167.619 205.722C167.619 203.836 166.088 202.308 164.2 202.308C162.312 202.308 160.782 203.836 160.782 205.722C160.782 207.607 162.312 209.135 164.2 209.135Z" fill="#ACDEE3"/>
<path d="M150.576 209.135C152.464 209.135 153.994 207.607 153.994 205.722C153.994 203.836 152.464 202.308 150.576 202.308C148.688 202.308 147.157 203.836 147.157 205.722C147.157 207.607 148.688 209.135 150.576 209.135Z" fill="#ACDEE3"/>
<path d="M136.952 209.135C138.84 209.135 140.37 207.607 140.37 205.722C140.37 203.836 138.84 202.308 136.952 202.308C135.064 202.308 133.533 203.836 133.533 205.722C133.533 207.607 135.064 209.135 136.952 209.135Z" fill="#ACDEE3"/>
<path d="M123.327 209.135C125.215 209.135 126.746 207.607 126.746 205.722C126.746 203.836 125.215 202.308 123.327 202.308C121.439 202.308 119.909 203.836 119.909 205.722C119.909 207.607 121.439 209.135 123.327 209.135Z" fill="#ACDEE3"/>
<path d="M164.2 223.386C166.088 223.386 167.619 221.858 167.619 219.973C167.619 218.088 166.088 216.559 164.2 216.559C162.312 216.559 160.782 218.088 160.782 219.973C160.782 221.858 162.312 223.386 164.2 223.386Z" fill="#ACDEE3"/>
<path d="M150.576 223.386C152.464 223.386 153.994 221.858 153.994 219.973C153.994 218.088 152.464 216.559 150.576 216.559C148.688 216.559 147.157 218.088 147.157 219.973C147.157 221.858 148.688 223.386 150.576 223.386Z" fill="#ACDEE3"/>
<path d="M136.952 223.386C138.84 223.386 140.37 221.858 140.37 219.973C140.37 218.088 138.84 216.559 136.952 216.559C135.064 216.559 133.533 218.088 133.533 219.973C133.533 221.858 135.064 223.386 136.952 223.386Z" fill="#ACDEE3"/>
<path d="M123.327 223.386C125.215 223.386 126.746 221.858 126.746 219.973C126.746 218.088 125.215 216.559 123.327 216.559C121.439 216.559 119.909 218.088 119.909 219.973C119.909 221.858 121.439 223.386 123.327 223.386Z" fill="#ACDEE3"/>
<path d="M164.2 237.638C166.088 237.638 167.619 236.109 167.619 234.224C167.619 232.339 166.088 230.811 164.2 230.811C162.312 230.811 160.782 232.339 160.782 234.224C160.782 236.109 162.312 237.638 164.2 237.638Z" fill="#ACDEE3"/>
<path d="M150.576 237.638C152.464 237.638 153.994 236.109 153.994 234.224C153.994 232.339 152.464 230.811 150.576 230.811C148.688 230.811 147.157 232.339 147.157 234.224C147.157 236.109 148.688 237.638 150.576 237.638Z" fill="#ACDEE3"/>
<path d="M136.952 237.638C138.84 237.638 140.37 236.109 140.37 234.224C140.37 232.339 138.84 230.811 136.952 230.811C135.064 230.811 133.533 232.339 133.533 234.224C133.533 236.109 135.064 237.638 136.952 237.638Z" fill="#ACDEE3"/>
<path d="M123.327 237.638C125.215 237.638 126.746 236.109 126.746 234.224C126.746 232.339 125.215 230.811 123.327 230.811C121.439 230.811 119.909 232.339 119.909 234.224C119.909 236.109 121.439 237.638 123.327 237.638Z" fill="#ACDEE3"/>
<path d="M134.161 327.343V328.399C134.163 330.148 134.86 331.826 136.098 333.063C137.337 334.3 139.017 334.995 140.769 334.997H188.345C190.097 334.996 191.777 334.301 193.016 333.064C194.256 331.827 194.952 330.149 194.953 328.399V327.343C194.956 325.799 194.413 324.304 193.419 323.121C193.089 322.728 192.715 322.374 192.304 322.065C192.304 322.065 166.148 321.474 166.148 320.746H140.769C139.017 320.748 137.338 321.444 136.099 322.681C134.861 323.918 134.164 325.594 134.161 327.343V327.343Z" fill="#CCCCCC"/>
<path d="M168.375 334.735H161.503V379.072H168.375V334.735Z" fill="#CCCCCC"/>
<path d="M187.934 378.831C187.934 379.573 177.521 379.118 164.675 379.118C151.829 379.118 141.416 379.573 141.416 378.831C141.416 378.09 151.829 372.211 164.675 372.211C177.521 372.211 187.934 378.09 187.934 378.831Z" fill="#CCCCCC"/>
<path d="M178.486 326.448C178.982 325.783 179.327 325.018 179.494 324.206C179.662 323.394 179.65 322.556 179.458 321.749C179.266 320.943 178.899 320.188 178.384 319.538C177.868 318.889 177.216 318.36 176.474 317.989L161.909 268.433L150.818 273.857L168.622 320.863C168.081 322.15 168.031 323.59 168.482 324.911C168.933 326.232 169.854 327.342 171.07 328.03C172.286 328.719 173.712 328.938 175.079 328.646C176.446 328.355 177.658 327.573 178.486 326.448L178.486 326.448Z" fill="#A0616A"/>
<path d="M165.208 276.709L152.795 280.065C152.442 280.16 152.072 280.178 151.711 280.118C151.35 280.058 151.007 279.921 150.704 279.717C150.4 279.512 150.145 279.244 149.955 278.932C149.765 278.62 149.644 278.271 149.601 277.908L148.101 265.194C147.622 263.387 147.88 261.464 148.819 259.847C149.758 258.23 151.301 257.05 153.109 256.567C154.918 256.084 156.844 256.336 158.466 257.269C160.089 258.202 161.274 259.74 161.763 261.544L166.877 273.238C167.023 273.573 167.096 273.936 167.089 274.301C167.082 274.666 166.997 275.026 166.839 275.355C166.68 275.685 166.453 275.976 166.171 276.21C165.89 276.443 165.562 276.614 165.208 276.709H165.208Z" fill="#FFD763"/>
<path d="M181.731 373.635L188.212 373.634L191.295 356.851H181.73L181.731 373.635Z" fill="#A0616A"/>
<path d="M180.077 371.522L192.84 371.521H192.841C193.909 371.521 194.967 371.731 195.953 372.139C196.94 372.547 197.837 373.146 198.592 373.9C199.347 374.654 199.947 375.549 200.355 376.535C200.764 377.52 200.974 378.576 200.974 379.643V379.906L180.078 379.907L180.077 371.522Z" fill="#2F2E41"/>
<path d="M189.253 364.635C189.178 364.635 189.102 364.631 189.026 364.624L180.057 363.972C179.694 363.938 179.344 363.822 179.033 363.632C178.723 363.442 178.46 363.183 178.266 362.875C178.071 362.568 177.95 362.22 177.911 361.858C177.873 361.497 177.918 361.131 178.043 360.789L190.046 333.862C190.132 333.622 190.167 333.367 190.149 333.113C190.131 332.859 190.061 332.611 189.942 332.385C189.824 332.157 189.659 331.956 189.458 331.796C189.256 331.636 189.023 331.52 188.774 331.456C183.129 329.983 168.648 326.06 156.112 321.471C150.741 319.504 147.359 316.663 146.058 313.025C144.344 308.228 146.88 303.854 146.989 303.671L147.074 303.527L158.87 304.597L171.658 305.683L199.682 320.688C202.03 321.956 203.814 324.061 204.678 326.583C205.542 329.105 205.422 331.86 204.344 334.298L191.424 363.227C191.237 363.646 190.932 364.002 190.547 364.252C190.162 364.502 189.712 364.635 189.253 364.635V364.635Z" fill="#2F2E41"/>
<path d="M160.921 251.324C168.092 251.324 173.905 245.52 173.905 238.36C173.905 231.2 168.092 225.396 160.921 225.396C153.751 225.396 147.938 231.2 147.938 238.36C147.938 245.52 153.751 251.324 160.921 251.324Z" fill="#A0616A"/>
<path d="M178.03 373.107L184.511 373.106L187.595 356.323H178.029L178.03 373.107Z" fill="#A0616A"/>
<path d="M176.377 370.994L189.14 370.993H189.14C190.209 370.993 191.266 371.203 192.253 371.612C193.24 372.02 194.137 372.618 194.892 373.372C195.647 374.126 196.246 375.021 196.655 376.007C197.064 376.992 197.274 378.048 197.274 379.115V379.379L176.377 379.379L176.377 370.994Z" fill="#2F2E41"/>
<path d="M185.553 366.218C185.477 366.218 185.401 366.215 185.325 366.207L176.357 365.555C175.994 365.522 175.644 365.405 175.333 365.215C175.023 365.025 174.76 364.766 174.565 364.459C174.371 364.151 174.249 363.803 174.211 363.442C174.172 363.08 174.217 362.714 174.343 362.373L186.346 335.446C186.432 335.206 186.467 334.951 186.449 334.696C186.431 334.442 186.361 334.194 186.242 333.969C186.124 333.74 185.959 333.539 185.757 333.379C185.556 333.219 185.323 333.103 185.073 333.04C179.429 331.567 164.948 327.644 152.412 323.054C147.041 321.088 143.658 318.246 142.358 314.608C140.644 309.812 143.18 305.437 143.289 305.254L143.374 305.11L155.17 306.181L167.958 307.267L195.982 322.272C198.33 323.54 200.113 325.644 200.977 328.166C201.841 330.689 201.722 333.443 200.643 335.881L187.723 364.81C187.536 365.229 187.232 365.585 186.847 365.835C186.462 366.085 186.012 366.218 185.553 366.218V366.218Z" fill="#2F2E41"/>
<path d="M164.925 258.675L151.181 253.925C151.181 253.925 142.553 260.544 146.698 276.964C148.862 285.437 148.232 294.381 144.901 302.469C144.5 303.469 144.037 304.444 143.516 305.388C143.516 305.388 158.846 323.862 173.119 310.139L167.568 283.483C167.568 283.483 176.291 265.801 164.925 258.675Z" fill="#2F2E41"/>
<path d="M162.533 251.765C160.685 249.003 159.227 245.174 161.261 242.546C163.27 239.952 167.231 240.334 170.306 239.187C174.59 237.588 177.075 232.563 176.3 228.062C175.525 223.562 171.907 219.831 167.597 218.305C163.287 216.778 158.426 217.275 154.205 219.032C149.009 221.196 144.552 225.382 142.683 230.685C140.814 235.987 141.813 242.354 145.69 246.43C149.847 250.799 156.372 251.964 162.407 251.893" fill="#2F2E41"/>
<path d="M150.456 228.207C148.127 230.099 144.575 229.259 142.075 227.598C139.576 225.937 137.548 223.571 134.843 222.269C130.076 219.973 124.311 221.499 119.671 224.042C115.031 226.586 110.918 230.099 106.016 232.095C101.115 234.091 94.8601 234.19 91.1488 230.421C90.2354 233.063 90.1608 235.922 90.935 238.609C91.7092 241.295 93.2945 243.677 95.4747 245.43C97.6549 247.184 100.324 248.222 103.117 248.405C105.91 248.588 108.692 247.906 111.083 246.452C116.454 243.185 119.42 236.337 125.443 234.534C128.777 233.536 132.356 234.34 135.725 235.21C139.094 236.08 142.606 237.021 146.006 236.28C149.406 235.539 152.586 232.488 152.153 229.041L150.456 228.207Z" fill="#2F2E41"/>
<path d="M192.721 350.36C191.346 341.444 191.346 332.37 192.721 323.454C192.808 322.923 193.081 322.441 193.491 322.092C193.901 321.744 194.422 321.552 194.961 321.551H216.038C216.38 321.55 216.717 321.627 217.024 321.775C217.332 321.924 217.601 322.141 217.812 322.409C218.027 322.681 218.178 322.999 218.252 323.338C218.326 323.677 218.321 324.028 218.239 324.365C216.267 332.61 216.267 341.204 218.238 349.45C218.321 349.787 218.325 350.138 218.252 350.477C218.178 350.816 218.027 351.133 217.812 351.405C217.601 351.674 217.332 351.89 217.024 352.039C216.717 352.188 216.38 352.265 216.038 352.264H194.961C194.422 352.262 193.901 352.071 193.491 351.722C193.081 351.374 192.808 350.891 192.721 350.36V350.36Z" fill="#FFD763"/>
<path d="M209.552 334.576H198.491C198.071 334.575 197.668 334.408 197.37 334.112C197.073 333.815 196.906 333.412 196.905 332.992V332.374C196.906 331.954 197.073 331.552 197.37 331.255C197.668 330.958 198.071 330.791 198.491 330.79H209.552C209.972 330.791 210.375 330.958 210.673 331.255C210.97 331.552 211.137 331.954 211.138 332.374V332.992C211.137 333.412 210.97 333.815 210.673 334.112C210.375 334.408 209.972 334.575 209.552 334.576Z" fill="white"/>
<path d="M209.552 341.092H198.491C198.071 341.091 197.668 340.924 197.37 340.628C197.073 340.331 196.906 339.928 196.905 339.508V338.89C196.906 338.47 197.073 338.067 197.37 337.77C197.668 337.473 198.071 337.306 198.491 337.306H209.552C209.972 337.306 210.375 337.473 210.673 337.77C210.97 338.067 211.137 338.47 211.138 338.89V339.508C211.137 339.928 210.97 340.331 210.673 340.628C210.375 340.924 209.972 341.091 209.552 341.092Z" fill="white"/>
<path d="M198.264 324.073C198.578 323.306 198.719 322.479 198.679 321.651C198.638 320.823 198.416 320.014 198.029 319.281C197.641 318.548 197.097 317.909 196.435 317.408C195.774 316.908 195.01 316.558 194.198 316.384L167.696 272.034L158.314 280.053L187.315 321.126C187.113 322.507 187.425 323.914 188.192 325.081C188.959 326.247 190.129 327.092 191.478 327.455C192.828 327.819 194.264 327.675 195.515 327.052C196.765 326.428 197.743 325.369 198.264 324.073L198.264 324.073Z" fill="#A0616A"/>
<path d="M172.961 279.224L161.781 285.57C161.463 285.75 161.11 285.86 160.745 285.892C160.381 285.924 160.014 285.877 159.669 285.754C159.324 285.632 159.01 285.437 158.748 285.182C158.485 284.927 158.281 284.619 158.149 284.278L153.515 272.342C152.599 270.711 152.368 268.785 152.873 266.985C153.377 265.185 154.576 263.658 156.206 262.739C157.836 261.82 159.765 261.584 161.569 262.083C163.373 262.581 164.906 263.774 165.831 265.399L173.709 275.447C173.934 275.735 174.095 276.068 174.18 276.423C174.265 276.778 174.272 277.148 174.201 277.506C174.13 277.865 173.983 278.204 173.769 278.5C173.555 278.797 173.28 279.043 172.961 279.224V279.224Z" fill="#2F2E41"/>
<path d="M291.922 294.803H77.3025C76.3913 294.803 75.5173 295.164 74.8729 295.808C74.2285 296.451 73.8665 297.324 73.8665 298.234C73.8665 299.144 74.2285 300.016 74.8729 300.66C75.5173 301.303 76.3913 301.665 77.3025 301.665H83.3817V376.352C83.3817 377.262 83.7437 378.135 84.3881 378.778C85.0324 379.422 85.9064 379.783 86.8177 379.783C87.729 379.783 88.603 379.422 89.2473 378.778C89.8917 378.135 90.2537 377.262 90.2537 376.352V308.257L128.775 377.972C129.231 378.758 129.982 379.331 130.861 379.565C131.74 379.799 132.677 379.676 133.465 379.221C134.253 378.767 134.829 378.019 135.065 377.141C135.301 376.264 135.18 375.329 134.726 374.541L94.4582 301.665H278.442V301.709L238.199 374.541C237.743 375.329 237.62 376.265 237.856 377.144C238.092 378.023 238.667 378.772 239.457 379.227C240.246 379.682 241.184 379.805 242.064 379.57C242.944 379.334 243.694 378.76 244.15 377.972L278.442 315.91V376.352C278.442 377.262 278.804 378.135 279.449 378.778C280.093 379.422 280.967 379.783 281.878 379.783C282.789 379.783 283.663 379.422 284.308 378.778C284.952 378.135 285.314 377.262 285.314 376.352V303.474L286.314 301.665H291.922C292.833 301.665 293.707 301.303 294.352 300.66C294.996 300.016 295.358 299.144 295.358 298.234C295.358 297.324 294.996 296.451 294.352 295.808C293.707 295.164 292.833 294.803 291.922 294.803V294.803Z" fill="#3F3D56"/>
<path d="M203.114 292.691H161.353C160.331 292.691 159.503 293.519 159.503 294.539C159.503 295.559 160.331 296.386 161.353 296.386H203.114C204.136 296.386 204.964 295.559 204.964 294.539C204.964 293.519 204.136 292.691 203.114 292.691Z" fill="#CCCCCC"/>
<path d="M231.131 296.386H184.084C183.173 296.385 182.299 296.023 181.655 295.38C181.011 294.737 180.649 293.865 180.648 292.955V267.092C180.649 266.182 181.011 265.31 181.655 264.667C182.299 264.024 183.173 263.662 184.084 263.661H231.131C232.042 263.662 232.915 264.024 233.559 264.667C234.203 265.31 234.566 266.182 234.567 267.092V292.955C234.566 293.865 234.203 294.737 233.559 295.38C232.915 296.023 232.042 296.385 231.131 296.386V296.386Z" fill="#CCCCCC"/>
<path d="M207.607 283.19C209.359 283.19 210.779 281.772 210.779 280.023C210.779 278.274 209.359 276.856 207.607 276.856C205.856 276.856 204.436 278.274 204.436 280.023C204.436 281.772 205.856 283.19 207.607 283.19Z" fill="white"/>
<path d="M267.035 232.662V140.029C267.036 138.976 267.455 137.967 268.201 137.223C268.946 136.478 269.957 136.06 271.011 136.059H344.346C345.4 136.06 346.41 136.478 347.156 137.223C347.901 137.967 348.32 138.976 348.322 140.029V232.662C348.32 233.715 347.901 234.724 347.156 235.468C346.41 236.213 345.4 236.631 344.346 236.632H271.011C269.957 236.631 268.946 236.213 268.201 235.468C267.455 234.724 267.036 233.715 267.035 232.662V232.662ZM271.011 136.941C270.191 136.942 269.405 137.267 268.825 137.846C268.246 138.425 267.919 139.21 267.919 140.029V232.662C267.919 233.481 268.246 234.266 268.825 234.845C269.405 235.424 270.191 235.749 271.011 235.75H344.346C345.165 235.749 345.951 235.424 346.531 234.845C347.111 234.266 347.437 233.481 347.438 232.662V140.029C347.437 139.21 347.111 138.425 346.531 137.846C345.951 137.267 345.165 136.942 344.346 136.941H271.011Z" fill="#E6E6E6"/>
<path d="M311.791 178.6V159.58C311.791 159.053 312.001 158.549 312.374 158.177C312.746 157.805 313.252 157.595 313.779 157.595H329.921C330.448 157.595 330.953 157.805 331.326 158.177C331.699 158.549 331.909 159.053 331.909 159.58V178.6C331.909 179.127 331.699 179.631 331.326 180.003C330.953 180.375 330.448 180.585 329.921 180.585H313.779C313.252 180.585 312.746 180.375 312.374 180.003C312.001 179.631 311.791 179.127 311.791 178.6V178.6Z" fill="#FFD763"/>
<path d="M280.425 187.423V168.402C280.425 167.876 280.635 167.371 281.008 166.999C281.38 166.627 281.886 166.418 282.413 166.417H298.555C299.082 166.418 299.587 166.627 299.96 166.999C300.333 167.371 300.542 167.876 300.543 168.402V187.423C300.542 187.949 300.333 188.454 299.96 188.826C299.587 189.198 299.082 189.407 298.555 189.408H282.413C281.886 189.407 281.38 189.198 281.008 188.826C280.635 188.454 280.425 187.949 280.425 187.423V187.423Z" fill="#CCCCCC"/>
<path d="M305.606 214.331V195.31C305.606 194.784 305.816 194.279 306.189 193.907C306.561 193.535 307.067 193.325 307.594 193.325H323.736C324.263 193.325 324.769 193.535 325.141 193.907C325.514 194.279 325.724 194.784 325.724 195.31V214.33C325.724 214.857 325.514 215.361 325.141 215.733C324.769 216.106 324.263 216.315 323.736 216.316H307.594C307.067 216.315 306.561 216.106 306.189 215.733C305.816 215.361 305.606 214.857 305.606 214.331Z" fill="#FF6584"/>
<path d="M428.715 145.711C430.603 145.711 432.134 144.183 432.134 142.298C432.134 140.413 430.603 138.884 428.715 138.884C426.827 138.884 425.296 140.413 425.296 142.298C425.296 144.183 426.827 145.711 428.715 145.711Z" fill="#3EA9B1"/>
<path d="M428.715 159.315C430.603 159.315 432.134 157.787 432.134 155.902C432.134 154.016 430.603 152.488 428.715 152.488C426.827 152.488 425.296 154.016 425.296 155.902C425.296 157.787 426.827 159.315 428.715 159.315Z" fill="#3EA9B1"/>
<path d="M428.715 172.919C430.603 172.919 432.134 171.391 432.134 169.505C432.134 167.62 430.603 166.092 428.715 166.092C426.827 166.092 425.296 167.62 425.296 169.505C425.296 171.391 426.827 172.919 428.715 172.919Z" fill="#3EA9B1"/>
<path d="M428.715 186.523C430.603 186.523 432.134 184.995 432.134 183.109C432.134 181.224 430.603 179.696 428.715 179.696C426.827 179.696 425.296 181.224 425.296 183.109C425.296 184.995 426.827 186.523 428.715 186.523Z" fill="#3EA9B1"/>
<path d="M414.442 145.711C416.33 145.711 417.861 144.183 417.861 142.298C417.861 140.413 416.33 138.884 414.442 138.884C412.554 138.884 411.024 140.413 411.024 142.298C411.024 144.183 412.554 145.711 414.442 145.711Z" fill="#3EA9B1"/>
<path d="M414.442 159.315C416.33 159.315 417.861 157.787 417.861 155.902C417.861 154.016 416.33 152.488 414.442 152.488C412.554 152.488 411.024 154.016 411.024 155.902C411.024 157.787 412.554 159.315 414.442 159.315Z" fill="#3EA9B1"/>
<path d="M414.442 172.919C416.33 172.919 417.861 171.391 417.861 169.505C417.861 167.62 416.33 166.092 414.442 166.092C412.554 166.092 411.024 167.62 411.024 169.505C411.024 171.391 412.554 172.919 414.442 172.919Z" fill="#3EA9B1"/>
<path d="M414.442 186.523C416.33 186.523 417.861 184.995 417.861 183.109C417.861 181.224 416.33 179.696 414.442 179.696C412.554 179.696 411.024 181.224 411.024 183.109C411.024 184.995 412.554 186.523 414.442 186.523Z" fill="#3EA9B1"/>
<path d="M400.17 145.711C402.058 145.711 403.588 144.183 403.588 142.298C403.588 140.413 402.058 138.884 400.17 138.884C398.282 138.884 396.751 140.413 396.751 142.298C396.751 144.183 398.282 145.711 400.17 145.711Z" fill="#3EA9B1"/>
<path d="M400.17 159.315C402.058 159.315 403.588 157.787 403.588 155.902C403.588 154.016 402.058 152.488 400.17 152.488C398.282 152.488 396.751 154.016 396.751 155.902C396.751 157.787 398.282 159.315 400.17 159.315Z" fill="#3EA9B1"/>
<path d="M400.17 172.919C402.058 172.919 403.588 171.391 403.588 169.505C403.588 167.62 402.058 166.092 400.17 166.092C398.282 166.092 396.751 167.62 396.751 169.505C396.751 171.391 398.282 172.919 400.17 172.919Z" fill="#3EA9B1"/>
<path d="M400.17 186.523C402.058 186.523 403.588 184.995 403.588 183.109C403.588 181.224 402.058 179.696 400.17 179.696C398.282 179.696 396.751 181.224 396.751 183.109C396.751 184.995 398.282 186.523 400.17 186.523Z" fill="#3EA9B1"/>
<path d="M385.897 145.711C387.785 145.711 389.315 144.183 389.315 142.298C389.315 140.413 387.785 138.884 385.897 138.884C384.009 138.884 382.478 140.413 382.478 142.298C382.478 144.183 384.009 145.711 385.897 145.711Z" fill="#3EA9B1"/>
<path d="M385.897 159.315C387.785 159.315 389.315 157.787 389.315 155.902C389.315 154.016 387.785 152.488 385.897 152.488C384.009 152.488 382.478 154.016 382.478 155.902C382.478 157.787 384.009 159.315 385.897 159.315Z" fill="#3EA9B1"/>
<path d="M385.897 172.919C387.785 172.919 389.315 171.391 389.315 169.505C389.315 167.62 387.785 166.092 385.897 166.092C384.009 166.092 382.478 167.62 382.478 169.505C382.478 171.391 384.009 172.919 385.897 172.919Z" fill="#3EA9B1"/>
<path d="M385.897 186.523C387.785 186.523 389.315 184.995 389.315 183.109C389.315 181.224 387.785 179.696 385.897 179.696C384.009 179.696 382.478 181.224 382.478 183.109C382.478 184.995 384.009 186.523 385.897 186.523Z" fill="#3EA9B1"/>
<path d="M371.624 145.711C373.512 145.711 375.043 144.183 375.043 142.298C375.043 140.413 373.512 138.884 371.624 138.884C369.736 138.884 368.206 140.413 368.206 142.298C368.206 144.183 369.736 145.711 371.624 145.711Z" fill="#3EA9B1"/>
<path d="M371.624 159.315C373.512 159.315 375.043 157.787 375.043 155.902C375.043 154.016 373.512 152.488 371.624 152.488C369.736 152.488 368.206 154.016 368.206 155.902C368.206 157.787 369.736 159.315 371.624 159.315Z" fill="#3EA9B1"/>
<path d="M371.624 172.919C373.512 172.919 375.043 171.391 375.043 169.505C375.043 167.62 373.512 166.092 371.624 166.092C369.736 166.092 368.206 167.62 368.206 169.505C368.206 171.391 369.736 172.919 371.624 172.919Z" fill="#3EA9B1"/>
<path d="M371.624 186.523C373.512 186.523 375.043 184.995 375.043 183.109C375.043 181.224 373.512 179.696 371.624 179.696C369.736 179.696 368.206 181.224 368.206 183.109C368.206 184.995 369.736 186.523 371.624 186.523Z" fill="#3EA9B1"/>
<path d="M357.351 145.711C359.239 145.711 360.77 144.183 360.77 142.298C360.77 140.413 359.239 138.884 357.351 138.884C355.463 138.884 353.933 140.413 353.933 142.298C353.933 144.183 355.463 145.711 357.351 145.711Z" fill="#3EA9B1"/>
<path d="M357.351 159.315C359.239 159.315 360.77 157.787 360.77 155.902C360.77 154.016 359.239 152.488 357.351 152.488C355.463 152.488 353.933 154.016 353.933 155.902C353.933 157.787 355.463 159.315 357.351 159.315Z" fill="#3EA9B1"/>
<path d="M357.351 172.919C359.239 172.919 360.77 171.391 360.77 169.505C360.77 167.62 359.239 166.092 357.351 166.092C355.463 166.092 353.933 167.62 353.933 169.505C353.933 171.391 355.463 172.919 357.351 172.919Z" fill="#3EA9B1"/>
<path d="M357.351 186.523C359.239 186.523 360.77 184.995 360.77 183.109C360.77 181.224 359.239 179.696 357.351 179.696C355.463 179.696 353.933 181.224 353.933 183.109C353.933 184.995 355.463 186.523 357.351 186.523Z" fill="#3EA9B1"/>
<path d="M371.124 263.398C370.843 262.63 370.729 261.81 370.788 260.994C370.846 260.178 371.077 259.384 371.465 258.663C371.852 257.942 372.388 257.311 373.037 256.812C373.686 256.312 374.433 255.955 375.23 255.764C375.482 255.705 375.739 255.663 375.997 255.639L388.844 233.155L385.6 227.59L393.675 221.37L399.853 229.937C400.59 230.967 400.974 232.207 400.949 233.472C400.924 234.738 400.492 235.962 399.715 236.962L382.078 259.508C382.142 259.687 382.197 259.869 382.242 260.054C382.433 260.849 382.454 261.676 382.303 262.48C382.152 263.285 381.832 264.048 381.365 264.72C380.898 265.392 380.294 265.959 379.592 266.381C378.891 266.804 378.108 267.074 377.294 267.174C377.058 267.204 376.82 267.219 376.582 267.219C375.391 267.215 374.229 266.847 373.253 266.164C372.277 265.481 371.534 264.516 371.124 263.398V263.398Z" fill="#FFB8B8"/>
<path d="M346.059 374.05L339.579 374.049L336.496 349.089L346.06 349.09L346.059 374.05Z" fill="#FFB8B8"/>
<path d="M334.949 372.2H347.448V380.058H327.08C327.08 379.026 327.284 378.004 327.679 377.051C328.075 376.098 328.654 375.232 329.385 374.502C330.116 373.772 330.983 373.193 331.938 372.799C332.893 372.404 333.916 372.2 334.949 372.2V372.2Z" fill="#2F2E41"/>
<path d="M399.45 374.05L392.969 374.049L389.886 349.089L399.451 349.09L399.45 374.05Z" fill="#FFB8B8"/>
<path d="M388.34 372.2H400.839V380.058H380.471C380.471 379.026 380.674 378.004 381.07 377.051C381.465 376.098 382.045 375.232 382.775 374.502C383.506 373.772 384.374 373.193 385.329 372.799C386.283 372.404 387.307 372.2 388.34 372.2V372.2Z" fill="#2F2E41"/>
<path d="M395.472 222.585L380.922 228.106L377.37 218.253C376.898 216.945 376.905 215.512 377.389 214.208C377.873 212.904 378.802 211.813 380.014 211.128V211.128C381.24 210.434 382.673 210.201 384.056 210.471C385.439 210.74 386.679 211.494 387.553 212.597L395.472 222.585Z" fill="#FFD763"/>
<path d="M346.619 353.834L334.416 351.055C333.767 350.906 333.199 350.518 332.825 349.968C332.451 349.417 332.3 348.746 332.401 348.089C337.297 317.101 342.008 298.953 354.148 275.907C354.318 275.478 356.214 266.756 357.451 260.978C357.437 260.341 357.655 259.721 358.065 259.233C358.474 258.745 359.048 258.423 359.678 258.326L382.432 254.829C382.776 254.71 383.138 254.656 383.501 254.669L383.728 254.712L383.725 254.935C383.723 255.166 383.492 255.202 383.406 255.215L383.103 255.261C383.448 255.422 383.765 255.637 384.042 255.898C394.011 267.871 399.196 307.118 405.78 350.477C405.817 350.829 405.774 351.184 405.654 351.518C405.535 351.851 405.343 352.153 405.091 352.402C404.853 352.662 404.564 352.871 404.243 353.016C403.921 353.161 403.574 353.24 403.221 353.247L388.683 353.601C388.044 353.615 387.422 353.397 386.933 352.987C386.443 352.578 386.119 352.005 386.021 351.374L376.229 294.871C376.162 294.429 375.955 294.021 375.639 293.705C375.323 293.389 374.915 293.182 374.473 293.114C374.031 293.046 373.579 293.121 373.182 293.327C372.785 293.533 372.465 293.86 372.267 294.261C364.368 310.325 357.001 324.218 349.745 351.935C349.601 352.497 349.274 352.995 348.815 353.351C348.357 353.707 347.792 353.901 347.212 353.901C347.012 353.901 346.813 353.879 346.619 353.834V353.834Z" fill="#2F2E41"/>
<path d="M358.464 261.623C358.158 261.407 357.901 261.128 357.711 260.805C357.521 260.482 357.402 260.122 357.362 259.75C355.499 242.379 356.797 228.785 361.33 218.191C362.129 216.364 363.332 214.742 364.848 213.445C366.365 212.149 368.157 211.213 370.088 210.707L381.849 210.114L381.91 210.144C384.564 211.442 386.729 213.559 388.083 216.182C389.437 218.805 389.908 221.794 389.427 224.706C385.644 234.662 382.476 245.028 384.892 253.391C384.993 253.741 385.023 254.107 384.979 254.468C384.935 254.83 384.818 255.178 384.636 255.494C384.46 255.798 384.222 256.064 383.939 256.273C383.656 256.483 383.332 256.632 382.989 256.712L360.587 262.033C360.224 262.12 359.847 262.128 359.481 262.057C359.115 261.986 358.768 261.838 358.464 261.623V261.623Z" fill="#FFD763"/>
<path d="M353.401 236.695L330.842 218.925C330.663 218.988 330.48 219.042 330.295 219.087C329.498 219.273 328.672 219.289 327.869 219.135C327.066 218.982 326.304 218.661 325.633 218.194C324.958 217.727 324.391 217.121 323.969 216.417C323.547 215.713 323.281 214.927 323.188 214.112C323.036 212.809 323.331 211.493 324.022 210.378C324.714 209.263 325.763 208.414 326.999 207.969C327.77 207.693 328.591 207.582 329.408 207.645C330.225 207.708 331.019 207.942 331.739 208.332C332.459 208.723 333.088 209.261 333.586 209.911C334.083 210.562 334.437 211.309 334.625 212.106C334.683 212.358 334.723 212.614 334.746 212.872L357.202 225.808L362.791 222.595L368.981 230.688L360.304 236.863C359.289 237.58 358.068 237.951 356.825 237.921C355.581 237.89 354.381 237.461 353.401 236.695H353.401Z" fill="#FFB8B8"/>
<path d="M371.734 233.208L358.863 224.469L364.912 215.914C365.715 214.778 366.894 213.963 368.242 213.611C369.589 213.259 371.017 213.395 372.275 213.993V213.993C373.546 214.598 374.559 215.638 375.131 216.923C375.702 218.209 375.794 219.656 375.39 221.004L371.734 233.208Z" fill="#FFD763"/>
<path d="M377.924 205.728C385.095 205.728 390.907 199.924 390.907 192.764C390.907 185.604 385.095 179.8 377.924 179.8C370.753 179.8 364.941 185.604 364.941 192.764C364.941 199.924 370.753 205.728 377.924 205.728Z" fill="#FFB8B8"/>
<path d="M373.164 190.833C369.827 193.113 365.445 195.458 362.037 193.029C359.799 191.435 359.094 188.482 360.002 185.89C361.634 181.23 366.117 179.179 370.405 177.606C375.979 175.562 382.048 173.936 387.803 175.4C393.557 176.864 398.642 182.427 397.603 188.264C396.768 192.959 392.333 196.865 392.963 201.592C393.596 206.349 398.954 208.853 403.684 209.703C408.414 210.553 413.707 210.826 417.106 214.218C421.442 218.546 420.359 226.281 416.279 230.85C412.199 235.419 406.041 237.49 400.075 238.898C392.17 240.764 383.619 241.744 376.111 238.648C368.603 235.552 362.761 227.218 364.936 219.404C365.854 216.103 368.019 213.313 370.11 210.597C372.202 207.881 374.32 205.041 375.117 201.709C375.782 198.932 375.29 195.708 373.446 193.625C373.111 193.261 372.9 192.799 372.843 192.308C372.787 191.816 372.888 191.319 373.132 190.888L373.164 190.833Z" fill="#2F2E41"/>
</g>
<defs>
<clipPath id="clip0_409_999">
<rect width="474" height="244" fill="white" transform="translate(16 136.059)"/>
</clipPath>
</defs>
</svg>
