<svg width="32" height="32" viewBox="0 0 32 32" fill="none" xmlns="http://www.w3.org/2000/svg">
<path d="M28.56 2.56H4.55375C3.45375 2.56 2.56 3.46625 2.56 4.57875V28.5412C2.56 29.6537 3.45375 30.56 4.55375 30.56H28.56C29.66 30.56 30.56 29.6537 30.56 28.5412V4.57875C30.56 3.46625 29.66 2.56 28.56 2.56ZM11.0225 26.56H6.8725V13.1975H11.0287V26.56H11.0225ZM8.9475 11.3725C7.61625 11.3725 6.54125 10.2912 6.54125 8.96625C6.54125 7.64125 7.61625 6.56 8.9475 6.56C10.2725 6.56 11.3537 7.64125 11.3537 8.96625C11.3537 10.2975 10.2787 11.3725 8.9475 11.3725V11.3725ZM26.5787 26.56H22.4287V20.06C22.4287 18.51 22.3975 16.5162 20.2725 16.5162C18.11 16.5162 17.7787 18.2037 17.7787 19.9475V26.56H13.6287V13.1975H17.61V15.0225H17.6662C18.2225 13.9725 19.5787 12.8662 21.5975 12.8662C25.7975 12.8662 26.5787 15.635 26.5787 19.235V26.56V26.56Z" fill="white"/>
</svg>
