<svg width="36" height="70" viewBox="0 0 36 70" fill="none" xmlns="http://www.w3.org/2000/svg">
<g clip-path="url(#clip0_511_1096)">
<path d="M20 35C19.4477 35 19 35.4477 19 36C19 36.5523 19.4477 37 20 37V35ZM36.2071 36.7071C36.5976 36.3166 36.5976 35.6834 36.2071 35.2929L29.8431 28.9289C29.4526 28.5384 28.8195 28.5384 28.4289 28.9289C28.0384 29.3195 28.0384 29.9526 28.4289 30.3431L34.0858 36L28.4289 41.6569C28.0384 42.0474 28.0384 42.6805 28.4289 43.0711C28.8195 43.4616 29.4526 43.4616 29.8431 43.0711L36.2071 36.7071ZM20 37H35.5V35H20V37Z" fill="#363D53"/>
<path d="M1 0V70" stroke="#E6E6E6" stroke-linecap="round"/>
</g>
<defs>
<clipPath id="clip0_511_1096">
<rect width="36" height="70" fill="white"/>
</clipPath>
</defs>
</svg>
