<svg xmlns="http://www.w3.org/2000/svg" viewBox="0 0 75 13"><defs><style>.cls-1{fill:#08558b;}</style></defs><g id="Isolation_Mode" data-name="Isolation Mode"><path class="cls-1" d="M9.18,12.29a5.1,5.1,0,0,1-1.41-.55c-.64-.3-1.47-.72-2.22-1.11-1.27-.66-1.8-1-1.88-1.58s.48-1.26,1.15-1.91a10.87,10.87,0,0,1,1.7-1.29c.41-.27.77-.5.75-.66s-.18-.2-.35-.3l-.1-.06A6.78,6.78,0,0,1,4.14,1.47a.25.25,0,0,1,.09-.19c.18-.13.31,0,.39.14a6.93,6.93,0,0,0,.86.94h0A8.57,8.57,0,0,0,7,3.51,9.43,9.43,0,0,0,8,4c.47.22.78.36.88.75s-.09.71-.43,1.18A10.18,10.18,0,0,1,6.64,7.79c-.5.43-.83.72-.81,1,0,.13.08.23.52.64a25.59,25.59,0,0,0,2.47,2c.55.4.68.49.58.7a.28.28,0,0,1-.14.12Z"/><path class="cls-1" d="M2.29,12.73h0C2,12.71,2,12.46,2,11.68A28.15,28.15,0,0,1,3.42,3.84c.07-.2.16-.38.19-.45.18-.33.26-.48.45-.43h0c.23,0,.2.31.17.57s-.07.5-.14.89c-.14.73-.33,1.72-.55,2.77-.31,1.55-.66,3.32-.85,4.48v0C2.57,12.48,2.52,12.73,2.29,12.73Z"/><path class="cls-1" d="M12.44,12.26a3.49,3.49,0,0,1-1.69-.41,3.2,3.2,0,0,1-1.18-1.13,3.15,3.15,0,0,1-.43-1.61,3.07,3.07,0,0,1,.25-1.25,3.24,3.24,0,0,1,1.69-1.7,3.22,3.22,0,0,1,1.24-.24A3.38,3.38,0,0,1,14,6.3a2.79,2.79,0,0,1,1.1,1.08A3.15,3.15,0,0,1,15.44,9v.12a.79.79,0,0,1,0,.13H10.28a2.12,2.12,0,0,0,.29,1.1,2,2,0,0,0,.78.75,2.34,2.34,0,0,0,1.14.27,2.44,2.44,0,0,0,1.1-.25,2.48,2.48,0,0,0,.84-.75l.83.43a3,3,0,0,1-1.17,1.1A3.52,3.52,0,0,1,12.44,12.26Zm-2.1-3.88h4A1.85,1.85,0,0,0,13.25,7a2.09,2.09,0,0,0-.91-.19,2.24,2.24,0,0,0-.95.19,1.73,1.73,0,0,0-.69.53A2,2,0,0,0,10.34,8.38Z"/><path class="cls-1" d="M19.23,12.26A3.29,3.29,0,0,1,18,12a3.2,3.2,0,0,1-1-.67,3.26,3.26,0,0,1-.7-1A3,3,0,0,1,16,9.09a3.19,3.19,0,0,1,.24-1.24,3.16,3.16,0,0,1,1.73-1.69,3.4,3.4,0,0,1,1.29-.24,3.5,3.5,0,0,1,1.12.17,2.77,2.77,0,0,1,.89.46l-.42.77a2.48,2.48,0,0,0-2.62-.16,2.12,2.12,0,0,0-.79.81,2.35,2.35,0,0,0-.28,1.12,2.24,2.24,0,0,0,.29,1.13,2.05,2.05,0,0,0,.8.8,2.26,2.26,0,0,0,1.17.3,2.45,2.45,0,0,0,.78-.12,2.05,2.05,0,0,0,.64-.34l.43.76a2.77,2.77,0,0,1-.89.46A3.42,3.42,0,0,1,19.23,12.26Z"/><path class="cls-1" d="M21.31,12.07,25.39,7H21.77V6.1h5.61l-4.09,5.08h3.94v.89Z"/><path class="cls-1" d="M31,12.26a3.49,3.49,0,0,1-1.69-.41,3.17,3.17,0,0,1-1.17-1.13,3.06,3.06,0,0,1-.44-1.61A3.24,3.24,0,0,1,28,7.86a3.16,3.16,0,0,1,.68-1,3.11,3.11,0,0,1,2.25-.93,3.45,3.45,0,0,1,1.64.38,2.76,2.76,0,0,1,1.09,1.08A3.05,3.05,0,0,1,34,9s0,.09,0,.12a.69.69,0,0,1,0,.13H28.86a2.12,2.12,0,0,0,.28,1.1,2,2,0,0,0,.78.75,2.38,2.38,0,0,0,1.15.27,2.43,2.43,0,0,0,1.09-.25,2.48,2.48,0,0,0,.84-.75l.83.43a2.89,2.89,0,0,1-1.17,1.1A3.49,3.49,0,0,1,31,12.26ZM28.92,8.38h4a1.67,1.67,0,0,0-.36-.8A1.85,1.85,0,0,0,31.83,7a2.17,2.17,0,0,0-.92-.19A2.24,2.24,0,0,0,30,7a1.73,1.73,0,0,0-.69.53A1.83,1.83,0,0,0,28.92,8.38Z"/><path class="cls-1" d="M37.84,12.26a3.43,3.43,0,0,1-1.68-.41A3.2,3.2,0,0,1,35,10.72a3.06,3.06,0,0,1-.43-1.61,3.24,3.24,0,0,1,.24-1.25,3.16,3.16,0,0,1,.68-1,3.23,3.23,0,0,1,1-.69,3.14,3.14,0,0,1,1.23-.24,3.42,3.42,0,0,1,1.64.38,2.76,2.76,0,0,1,1.09,1.08A3.05,3.05,0,0,1,40.85,9a.41.41,0,0,1,0,.12.69.69,0,0,1,0,.13H35.69a2.12,2.12,0,0,0,.28,1.1,2,2,0,0,0,.78.75,2.54,2.54,0,0,0,2.24,0,2.31,2.31,0,0,0,.84-.75l.83.43a2.89,2.89,0,0,1-1.17,1.1A3.46,3.46,0,0,1,37.84,12.26ZM35.75,8.38h4a1.67,1.67,0,0,0-.36-.8A1.78,1.78,0,0,0,38.66,7a2.13,2.13,0,0,0-.92-.19,2.27,2.27,0,0,0-1,.19,1.73,1.73,0,0,0-.69.53A1.83,1.83,0,0,0,35.75,8.38Z"/><path d="M45.53,12.12,43,3.5h1.18l2,7.2,2.32-7.2h.81l2.33,7.2,2-7.2H54.8l-2.53,8.62H51.08L48.9,5.57l-2.18,6.55Z"/><path d="M57.16,12.29a2.6,2.6,0,0,1-2.31-1.38,3.07,3.07,0,0,1-.35-1.47A3.05,3.05,0,0,1,54.84,8a2.71,2.71,0,0,1,.95-1,2.6,2.6,0,0,1,1.37-.37,2.51,2.51,0,0,1,1.24.31,2.2,2.2,0,0,1,.87.84v-1h1v5.35h-1v-1a2.64,2.64,0,0,1-.9.86A2.5,2.5,0,0,1,57.16,12.29Zm.27-.88a1.85,1.85,0,0,0,1-.25,1.78,1.78,0,0,0,.66-.7,2.27,2.27,0,0,0,0-2,1.78,1.78,0,0,0-.66-.7,1.94,1.94,0,0,0-1.94,0,1.78,1.78,0,0,0-.66.7,2,2,0,0,0-.25,1,2,2,0,0,0,.25,1,1.78,1.78,0,0,0,.66.7A1.85,1.85,0,0,0,57.43,11.41Z"/><path d="M61.64,12.12V6.77h1v.69a1.86,1.86,0,0,1,.71-.61,2.44,2.44,0,0,1,2.17,0,1.76,1.76,0,0,1,.7.75,2.58,2.58,0,0,1,.25,1.16v3.35h-1V9a1.7,1.7,0,0,0-.36-1.16,1.32,1.32,0,0,0-1-.4,1.54,1.54,0,0,0-.77.18,1.28,1.28,0,0,0-.5.48,1.35,1.35,0,0,0-.17.66v3.39Z"/><path d="M70,12.29a2.57,2.57,0,0,1-2.3-1.38,2.94,2.94,0,0,1-.36-1.47A3.06,3.06,0,0,1,67.69,8a2.71,2.71,0,0,1,1-1A2.64,2.64,0,0,1,70,6.6a2.43,2.43,0,0,1,1.22.31,2.2,2.2,0,0,1,.87.84V3.13h1v9h-1v-1a2.56,2.56,0,0,1-.9.86A2.47,2.47,0,0,1,70,12.29Zm.27-.88a1.85,1.85,0,0,0,1-.25,1.78,1.78,0,0,0,.66-.7,2.07,2.07,0,0,0,.24-1,2.13,2.13,0,0,0-.24-1,1.78,1.78,0,0,0-.66-.7,1.92,1.92,0,0,0-1.93,0,1.81,1.81,0,0,0-.67.7,2.13,2.13,0,0,0-.24,1,2.07,2.07,0,0,0,.24,1,1.78,1.78,0,0,0,.66.7A1.85,1.85,0,0,0,70.27,11.41Z"/></g></svg>